<svg width="219" height="137" viewBox="0 0 219 137" fill="none" xmlns="http://www.w3.org/2000/svg">
<path fill-rule="evenodd" clip-rule="evenodd" d="M206.47 52.2278C212.401 66.8241 193.061 79.6832 181.042 82.7081C180.098 82.9457 179.167 83.2207 178.237 83.4958C177.526 83.7057 176.816 83.9158 176.099 84.1092C174.899 84.4328 173.784 84.519 172.64 84.6074C172.061 84.6521 171.476 84.6973 170.869 84.774C170.092 84.872 169.542 85.2467 168.988 85.6243C168.515 85.9465 168.039 86.2708 167.416 86.4272C165.387 86.9363 165.26 85.6075 165.106 84.0079C165.089 83.8259 165.071 83.6404 165.05 83.4537C164.178 75.7035 160.045 68.3029 155.704 61.9205C157.601 61.1902 159.48 60.3977 161.351 59.603C161.907 59.367 162.562 58.9887 163.254 58.5894C164.557 57.8375 165.988 57.0115 167.121 56.9225C168.076 56.8479 169.419 57.4117 170.563 57.8919C170.956 58.0572 171.326 58.2125 171.649 58.3285C173.746 59.0833 175.847 59.7187 178.027 60.2158C178.684 60.3657 179.354 60.5257 180.033 60.6878C183.293 61.4658 186.761 62.2936 190.007 62.2995C190.276 62.3 190.658 62.3262 191.093 62.356C192.488 62.4517 194.441 62.5855 195.048 62.0379C196.568 60.6679 194.389 59.6066 193.08 59.1608C189.249 57.8571 185.314 56.9489 181.373 56.0397C177.284 55.0961 173.189 54.1514 169.203 52.7623C167.345 52.1147 165.494 51.4298 163.642 50.7442C161.479 49.9435 159.314 49.1419 157.131 48.3979C156.171 48.0709 155.199 47.7552 154.224 47.4385C151.65 46.6023 149.053 45.7589 146.599 44.6813C142.13 42.7202 137.63 40.252 133.731 37.3114C133.511 37.1458 133.225 36.9583 132.914 36.7552C132.121 36.2368 131.171 35.616 130.779 34.9936C130.52 34.5831 130.422 34.6166 130.399 34.5886C130.379 34.5645 130.414 34.4951 130.448 34.0609C130.483 33.6107 130.852 33.0462 131.189 32.529C131.358 32.2705 131.519 32.0239 131.626 31.8092C132.832 29.4069 133.915 26.9428 134.815 24.4092C138.253 25.7916 141.606 27.4705 144.953 29.1468C147.611 30.4777 150.266 31.8069 152.957 32.985C159.079 35.6647 165.956 37.4952 172.472 38.9309C173.311 39.1159 174.188 39.2577 175.073 39.4009C177.111 39.7306 179.195 40.0677 180.98 40.9573C181.2 41.0673 181.421 41.1809 181.641 41.2948C182.508 41.7418 183.38 42.1916 184.303 42.4317C184.658 43.0766 184.996 43.1968 185.316 42.792C185.517 42.555 185.782 42.4508 186.11 42.4791C186.674 42.5613 187.249 42.7788 187.796 42.9854C187.935 43.0379 188.072 43.0898 188.207 43.1385C191.569 44.354 194.797 45.899 197.999 47.4778C198.229 47.5911 198.46 47.7041 198.691 47.8173C199.986 48.4511 201.293 49.0911 202.528 49.8212C203.308 50.2827 204.009 50.7498 204.654 51.3933C204.867 51.6066 205.009 51.811 205.129 51.9824C205.441 52.4309 205.596 52.6546 206.47 52.2278Z" fill="#FFC700"/>
<path fill-rule="evenodd" clip-rule="evenodd" d="M191.342 35.9323C191.848 35.4975 192.357 35.0602 192.807 34.5653C192.479 36.3048 193.133 37.8639 193.787 39.4225C193.929 39.7598 194.07 40.0972 194.202 40.4363L189.14 38.3074C189.681 37.3587 190.507 36.649 191.342 35.9323ZM128.692 30.7512C125.936 29.5791 123.3 27.4482 121.017 25.5383C118.396 23.3456 116.039 21.0384 114.091 18.167C114.439 18.1767 114.925 18.5233 115.43 18.8825C116.563 19.6903 117.786 20.5624 117.741 17.816C117.721 16.5857 116.673 15.3906 115.651 14.2255C114.991 13.4737 114.343 12.7344 113.988 12.0061C114.988 11.4099 115.991 12.7057 117.027 14.0432C118.179 15.5302 119.37 17.0688 120.64 16.1168C122.497 14.7245 120.403 10.7965 119.097 8.34891C118.769 7.73342 118.491 7.21155 118.338 6.84715C119.481 6.04624 125.379 13.0416 127.954 16.0956C128.453 16.6872 128.828 17.1313 129.018 17.3416C129.289 17.6405 129.693 17.9735 130.116 18.3228C130.842 18.9217 131.626 19.5683 131.896 20.1724C132.15 20.7421 132.227 22.5659 132.123 23.0976C131.985 23.8054 131.451 24.6111 130.947 25.3722C130.659 25.8066 130.381 26.2264 130.191 26.6052C129.531 27.9253 128.961 29.2944 128.692 30.7512ZM208.371 43.6244C203.981 43.993 199.764 42.0071 196.976 38.5552L196.959 38.5347C196.278 37.691 195.582 36.8291 195.162 35.8209C195.103 35.6564 195.044 35.4918 194.985 35.3272L194.884 35.0469C194.447 34.339 194.623 33.996 195.411 34.018C195.547 33.8225 195.751 33.6657 195.956 33.5081C196.401 33.1666 196.85 32.8216 196.614 32.0715C196.411 31.4266 195.825 31.2891 195.208 31.144C195.034 31.1031 194.857 31.0616 194.686 31.0079C195.055 30.3517 195.278 30.0215 195.815 29.433C195.878 29.4872 195.943 29.5436 196.011 29.6018L196.012 29.6033C197.504 30.8931 199.973 33.0279 200.869 30.1729C201.12 29.3726 200.956 28.6015 200.793 27.8369C200.664 27.2326 200.536 26.6323 200.615 26.0248C200.688 25.4555 201.372 23.9899 201.781 23.6412C203.955 21.7824 207.164 22.4556 209.541 23.4642C211.179 24.1594 211.536 24.4952 211.839 26.1695C211.925 26.6442 212.01 27.1188 212.094 27.5934C212.313 28.8208 212.531 30.0473 212.775 31.271C212.144 30.9602 211.834 30.3998 211.521 29.8335C211.345 29.5164 211.169 29.1975 210.935 28.9195L210.911 28.9658L210.908 28.9715C210.69 29.3926 210.471 29.815 210.252 30.236C209.913 30.0559 209.6 30.073 209.315 30.2881C208.913 30.9398 209.121 31.8531 209.286 32.5774C209.307 32.6682 209.327 32.7561 209.345 32.84C207.777 32.7306 207.156 34.4943 208.751 35.1655C210.402 35.8607 211.092 33.8438 211.117 32.5474C211.485 32.9673 211.85 33.001 212.177 33.0311C212.406 33.0523 212.616 33.0717 212.795 33.2222C213.229 33.587 213.414 34.364 213.585 35.2157C213.639 35.481 213.707 35.7683 213.778 36.0695C214.081 37.3569 214.444 38.8974 213.995 40.0509C213.171 42.165 210.413 43.3196 208.371 43.6244Z" fill="white"/>
<path fill-rule="evenodd" clip-rule="evenodd" d="M35.9362 74.706C34.9269 74.706 32.4587 69.0295 31.3508 66.1913C42.8761 52.7678 86.6464 37.8737 85.2391 39.7163C84.3919 40.8256 84.6176 48.2446 84.7937 54.0345C84.9101 57.8615 85.0049 60.9768 84.7538 61.0877C83.0787 61.0877 74.7134 62.1457 66.039 64.6569C60.2107 66.3441 54.6116 68.342 49.1961 69.9603C41.9093 72.1377 36.379 74.706 35.9362 74.706Z" fill="#69D3FA"/>
<path fill-rule="evenodd" clip-rule="evenodd" d="M120.904 105.36C118.84 105.662 116.858 105.803 114.785 105.599C113.384 105.523 111.073 103.179 110.093 102.016C105.084 93.6598 101.302 81.7887 97.9546 71.2804C96.9915 68.2573 96.0644 65.347 95.1543 62.6656C91.7489 46.5154 94.1868 42.6384 96.2672 39.33C96.7306 38.593 97.1762 37.8843 97.5356 37.0743C103.371 31.9629 115.257 33.6155 120.471 35.0808C129.859 38.8232 136.592 45.2928 140.068 48.6331C141.305 49.821 142.129 50.6131 142.515 50.7461C143.69 51.1516 154.485 70.0351 159.735 79.4263C161.674 83.8191 157.266 87.6347 154.916 88.92C154.916 88.92 147.554 88.1515 145.761 87.1018C143.369 87.7688 128.566 74.3194 127.629 72.2075C126.88 70.518 121.299 65.6489 118.602 63.4255C115.894 63.1901 113.535 66.9376 112.811 68.2386C112.45 68.8874 113.764 70.904 115.107 72.965C116.457 75.0369 117.836 77.1537 117.573 77.9715C117.048 79.6027 118.098 83.8191 119.522 85.2962C121.882 87.5213 124.91 98.8995 126.129 104.31C125.11 104.334 124.083 104.605 123.056 104.876C122.337 105.066 121.619 105.256 120.904 105.36Z" fill="#69D3FA"/>
<path fill-rule="evenodd" clip-rule="evenodd" d="M14.6461 63.1558C13.0606 60.9785 11.5925 58.5719 10.5624 56.123C7.98618 49.9984 5.65763 44.3028 4.30366 37.7918C5.615 38.3547 6.57518 40.233 7.34453 41.738C7.55507 42.1499 7.7513 42.5338 7.93654 42.8551C8.3447 43.5629 8.73654 44.2835 9.12888 45.0051C9.85118 46.3336 10.5752 47.6651 11.4058 48.9252C11.7589 49.4608 12.1112 50.0017 12.4649 50.5448C14.514 53.6913 16.6107 56.9106 19.1828 59.5814C19.6513 60.0681 20.0966 60.577 20.5424 61.0865L20.5433 61.0875C21.3971 62.0634 22.2538 63.0424 23.2838 63.8772C23.5663 64.1062 23.9482 64.3162 24.3399 64.5317C24.9415 64.8625 25.5663 65.2062 25.8904 65.6511C26.18 66.0486 26.1273 66.3705 26.0684 66.7307C26.0245 66.9987 25.9772 67.288 26.0648 67.6453C26.19 68.1565 26.5572 68.6823 26.917 69.1976C27.1621 69.5487 27.4039 69.8948 27.5635 70.2282C27.6939 70.5008 27.8222 70.7736 27.9504 71.0461L27.9516 71.0487C28.3313 71.856 28.7097 72.6606 29.1384 73.449C29.7644 74.6 29.9421 75.2054 30.1302 76.3401C30.1954 76.7331 30.1859 77.0159 30.1779 77.2544C30.1607 77.7691 30.1503 78.0781 30.9105 78.8444L28.434 80.0079L26.8226 80.7648L25.0695 81.5883L24.5585 81.8286L23.6991 82.2323L23.6895 82.2368L23.654 82.2535L23.0982 82.5146L22.6599 81.7361C22.1941 81.3039 21.7462 80.3237 21.4221 79.6146C21.3615 79.482 21.3053 79.3589 21.254 79.2506C19.8934 76.3825 18.3654 73.5069 16.8184 70.663C18.6426 67.9523 17.4267 66.5162 15.8524 64.6567C15.4588 64.1917 15.0427 63.7003 14.6461 63.1558Z" fill="white"/>
<path fill-rule="evenodd" clip-rule="evenodd" d="M127.234 112.03C127.388 113.495 127.719 114.932 128.084 116.355C128.122 116.504 128.21 116.747 128.312 117.03C128.559 117.716 128.893 118.642 128.819 119.053C128.79 119.216 128.773 119.334 128.761 119.419C128.739 119.564 128.732 119.615 128.702 119.639C128.686 119.652 128.663 119.657 128.627 119.664C128.541 119.681 128.382 119.713 128.068 119.91C127.429 120.312 126.704 120.411 125.983 120.509C125.735 120.543 125.487 120.577 125.243 120.623C125.011 120.667 124.539 120.86 124.03 121.068C123.247 121.387 122.377 121.742 122.155 121.65C121.836 121.518 121.674 121.205 121.506 120.879C121.336 120.55 121.159 120.206 120.805 120.017C119.844 119.504 118.457 119.996 117.572 120.435C116.315 121.058 115.277 122.014 114.238 122.971C113.321 123.815 112.402 124.661 111.331 125.28C107.272 127.625 102.423 128.983 97.8492 129.604C97.4511 129.658 97.0517 129.718 96.6515 129.777C94.5595 130.089 92.4435 130.404 90.3723 129.963C89.9788 129.879 89.562 129.816 89.1384 129.752C87.4693 129.501 85.6939 129.234 84.817 127.597C85.4403 127.409 86.0857 127.219 86.7485 127.023C95.9531 124.306 108.509 120.599 111.719 110.507C113.39 111.954 115.911 111.518 118.097 111.14C118.594 111.054 119.073 110.971 119.521 110.914C120.052 110.846 120.572 110.793 121.084 110.74C123.136 110.527 125.051 110.329 126.982 109.308C127.183 110.262 127.256 111.055 127.234 112.03Z" fill="white"/>
<path fill-rule="evenodd" clip-rule="evenodd" d="M79.702 36.894C81.4201 36.6838 83.3333 36.4498 84.7793 35.7805C86.4828 35.5996 90.1099 35.4737 90.9898 36.4175C91.0241 37.5232 90.4957 38.8497 89.9761 40.154C89.5912 41.1203 89.2111 42.0744 89.0682 42.9177C88.2599 47.6836 88.1696 52.9425 88.9348 57.7266C88.9687 57.9384 89.0976 58.3895 89.2547 58.9388C89.638 60.2792 90.1885 62.2045 89.9318 62.6655C89.7705 62.9552 88.6557 63.1042 88.0137 63.19C87.834 63.214 87.6914 63.2331 87.6171 63.2489C85.9716 63.5994 84.4021 64.0118 82.8239 64.4381C79.4146 65.3589 75.9786 66.1476 72.5372 66.9375C68.0311 67.9718 63.5158 69.0082 59.0391 70.3463C54.8211 71.6071 50.7209 73.1296 46.552 74.6776L46.4761 74.7058C45.9354 74.9065 45.395 75.1082 44.8546 75.3099C43.9055 75.6642 42.9562 76.0185 42.005 76.3674C41.7485 76.4616 41.4495 76.6022 41.1307 76.752C40.3388 77.1243 39.4251 77.5538 38.7405 77.4716C38.2303 77.4101 37.9599 77.2933 37.7391 77.1979C37.4181 77.0593 37.2022 76.966 36.5075 77.1542C36.0071 77.2897 35.5799 77.5494 35.1493 77.8111C34.627 78.1287 34.0998 78.4491 33.431 78.5544C34.3569 80.5854 30.6969 82.302 28.7294 83.2249C28.4636 83.3495 28.2287 83.4597 28.0402 83.5542C27.8225 83.6633 27.6041 83.7749 27.3852 83.8868C24.9676 85.1223 22.4898 86.3885 20.1236 84.7051C17.8342 83.0764 16.2955 80.4859 15.1177 77.9713C13.5061 74.5318 12.3441 71.8903 14.5569 68.5632C11.2401 67.2744 9.45056 63.4512 8.03387 60.4245C7.98034 60.3101 7.92733 60.1969 7.87479 60.085C6.06265 56.2266 4.40149 52.6598 3.04783 48.6044C1.9215 45.2309 1.08775 41.7012 0.797957 38.1124C0.685755 36.7197 0.696517 34.8622 1.94036 33.8755C2.40977 33.5033 3.60305 32.9015 4.23125 33.2428C4.92123 33.6176 4.84587 33.8091 4.68801 34.2101C4.62271 34.376 4.54327 34.5778 4.49807 34.8433C6.679 34.6875 8.6827 36.9829 9.8205 38.7309C10.9635 40.4867 12.0732 42.2581 13.1315 44.1222C15.1647 47.7024 17.5138 51.0019 20.3251 53.9623C21.4866 55.1858 22.6261 56.6315 23.7196 58.0603C24.3938 58.9415 25.2014 59.7068 26.0063 60.4695C26.7663 61.1897 27.524 61.9077 28.1646 62.7188C28.3738 62.9838 28.5021 63.2253 28.6083 63.4254C28.8228 63.8293 28.9476 64.0644 29.4679 63.983C29.7472 63.9396 30.2906 63.2689 30.7426 62.711C30.9936 62.4011 31.2164 62.1261 31.3502 62.0126C31.4403 61.9361 31.5232 61.8659 31.6004 61.8007C32.2342 61.2648 32.4772 61.0594 33.092 60.3393C33.7662 59.5484 34.2923 59.0042 35.1477 58.3723C38.7431 55.716 42.6591 52.9407 46.545 50.7072C48.1743 49.7707 49.7541 48.7466 51.3326 47.7233C53.8483 46.0926 56.3606 44.4641 59.0639 43.1962C62.9757 41.3614 66.684 40.2332 70.7499 38.9961C71.0886 38.893 71.4299 38.7892 71.7739 38.6842C74.0065 38.0024 76.16 37.3912 78.3171 37.0742C78.7537 37.0099 79.2202 36.9529 79.702 36.894ZM14.6467 63.1559C13.0611 60.9785 11.593 58.572 10.5629 56.1231C7.98669 49.9985 5.65814 44.3029 4.30417 37.7919C5.61552 38.3548 6.57569 40.2331 7.34504 41.7381C7.55558 42.1499 7.75182 42.5338 7.93705 42.8552C8.34521 43.5629 8.73705 44.2836 9.1294 45.0052C9.8517 46.3336 10.5757 47.6652 11.4063 48.9252C11.7594 49.4608 12.1117 50.0018 12.4654 50.5449C14.5146 53.6913 16.6112 56.9106 19.1833 59.5815C19.6518 60.0681 20.0971 60.5771 20.5429 61.0865L20.5438 61.0876C21.3977 62.0634 22.2543 63.0425 23.2843 63.8772C23.5668 64.1062 23.9487 64.3163 24.3404 64.5317C24.942 64.8626 25.5669 65.2062 25.8909 65.6511C26.1805 66.0487 26.1278 66.3706 26.0689 66.7308C26.025 66.9988 25.9777 67.288 26.0653 67.6454C26.1905 68.1566 26.5577 68.6824 26.9176 69.1977C27.1626 69.5487 27.4044 69.8949 27.564 70.2283C27.6944 70.5008 27.8227 70.7736 27.9509 71.0461L27.9522 71.0488C28.3318 71.856 28.7102 72.6606 29.1389 73.449C29.7649 74.6001 29.9426 75.2054 30.1307 76.3401C30.1959 76.7332 30.1864 77.0159 30.1784 77.2545C30.1612 77.7691 30.1509 78.0781 30.911 78.8445L28.4345 80.0079L26.8232 80.7648L25.07 81.5883L24.559 81.8286L23.6996 82.2324L23.69 82.2369L23.6546 82.2536L23.0987 82.5147L22.6604 81.7362C22.1946 81.3039 21.7467 80.3238 21.4226 79.6146C21.3621 79.482 21.3058 79.3589 21.2545 79.2506C19.8939 76.3826 18.3659 73.507 16.819 70.6631C18.6432 67.9524 17.4272 66.5162 15.853 64.6567C15.4593 64.1918 15.0432 63.7003 14.6467 63.1559ZM35.9356 74.7058C34.9263 74.7058 32.4581 69.0294 31.3502 66.1911C42.8755 52.7676 86.6458 37.8735 85.2385 39.7161C84.3913 40.8254 84.617 48.2444 84.7931 54.0343C84.9095 57.8614 85.0043 60.9766 84.7533 61.0876C83.0781 61.0876 74.7128 62.1455 66.0384 64.6567C60.2101 66.344 54.611 68.3419 49.1955 69.9602C41.9087 72.1375 36.3784 74.7058 35.9356 74.7058Z" fill="black"/>
<path fill-rule="evenodd" clip-rule="evenodd" d="M93.7155 35.0807C96.4252 32.0133 99.8461 30.1634 103.592 28.7508C104.139 28.6753 104.679 28.5654 105.218 28.4557C106.159 28.2641 107.096 28.0732 108.064 28.0686C108.866 28.0647 109.645 28.2158 110.422 28.3664C111.048 28.4879 111.673 28.6092 112.307 28.6483C112.637 28.6686 112.966 28.6809 113.295 28.6932C114.319 28.7315 115.341 28.7696 116.364 29.0502C116.987 29.2211 117.554 29.4748 118.121 29.7282C118.864 30.0608 119.606 30.3926 120.47 30.5355C119.73 29.7276 118.935 28.9228 118.128 28.106C115.143 25.0832 111.995 21.8963 110.878 17.7825C110.604 16.7738 110.447 15.6328 111.086 14.6765C111.189 14.5223 111.551 14.259 111.842 14.0476C112.048 13.8981 112.218 13.7746 112.235 13.7337C112.304 13.5763 112.202 13.3302 112.102 13.0865C112.018 12.8813 111.934 12.6779 111.953 12.5304C111.965 12.4323 111.977 12.3294 111.989 12.223C112.131 11.0161 112.326 9.35025 113.645 8.90057C114.284 8.68312 114.744 8.95239 115.19 9.21292C115.581 9.44185 115.961 9.66403 116.44 9.54336C116.426 9.50372 116.41 9.4613 116.394 9.41629C115.72 7.55964 113.439 1.27484 117.744 2.46787C119.902 3.06645 122.623 5.85874 124.34 7.62092C124.469 7.75332 124.592 7.87989 124.709 7.99929C126.285 9.60812 127.708 11.305 129.14 13.0125C129.751 13.7419 130.365 14.4733 130.992 15.2005C131.486 15.773 131.962 16.3968 132.44 17.0243C133.155 17.9622 133.876 18.908 134.674 19.7015C135.561 20.5849 136.637 20.9983 137.753 21.4271C138.023 21.531 138.296 21.6358 138.569 21.7484C140.958 22.7349 143.328 23.813 145.692 24.8883C148.07 25.9701 150.442 27.0491 152.82 28.029C156.934 29.7233 161.351 30.843 165.71 31.9482C166.961 32.2653 168.207 32.5812 169.439 32.909C173.762 34.0589 178.057 35.1009 182.233 36.0166C182.551 36.0863 182.863 36.2192 183.177 36.353C183.553 36.5131 183.932 36.6746 184.329 36.7312C185.15 36.8489 185.284 36.9291 185.324 36.8961C185.365 36.862 185.307 36.7067 185.809 36.3462C186.561 35.8059 187.28 34.6583 187.902 33.6644C188.154 33.262 188.39 32.8847 188.606 32.5831C190.425 30.0463 192.132 27.4596 193.676 24.7454C194.178 23.8647 194.617 22.8873 195.059 21.9019C195.814 20.2216 196.58 18.5181 197.681 17.231C197.851 17.0319 198.034 16.839 198.219 16.6449C198.715 16.1239 199.219 15.5942 199.498 14.9106C201.265 14.6283 205.019 14.2092 205.902 14.791C206.63 13.9746 207.591 13.296 208.609 12.8911C209.684 12.4633 209.843 12.6104 210.147 12.8924C210.319 13.0513 210.537 13.2529 210.99 13.4187C211.167 14.0141 211.521 14.1838 212.052 13.9258C212.471 13.8088 212.891 13.6998 213.314 13.5996C214.231 13.8853 214.281 14.3742 214.345 14.9969C214.374 15.2803 214.406 15.5914 214.524 15.9236C214.227 16.6865 214.439 17.039 215.163 16.9805C215.466 17.0481 215.728 17.1907 215.947 17.4082C216.422 17.9508 216.375 18.9502 216.312 19.6028C216.11 21.6626 215.211 22.9611 214.01 24.4365C213.356 24.4488 213.121 24.7687 213.304 25.3952C213.33 25.8816 213.486 26.3257 213.77 26.7285C213.842 26.9505 213.915 27.1726 213.988 27.3949C214.311 28.3776 214.635 29.3639 214.918 30.3563C215.68 33.0213 216.314 36.0896 216.081 38.8783C215.633 44.2076 211.386 46.3593 206.71 47.1068C214.8 52.1644 208.358 67.3003 203.608 72.8193C200.376 76.5734 196.684 79.7735 192.335 82.133C192.221 82.1948 192.107 82.2565 191.994 82.3181C188.327 84.3091 184.868 86.1878 180.791 87.1839C180.009 87.3749 179.232 87.6014 178.454 87.828C176.852 88.295 175.248 88.7625 173.606 88.9199C171.615 89.1114 171.099 89.4222 169.398 90.6645C169.271 90.7574 169.145 90.851 169.019 90.944C167.598 91.997 166.254 92.9935 164.311 92.4624C163.901 92.3503 163.425 91.9845 162.955 91.6223C162.428 91.2172 161.907 90.8166 161.491 90.7812C161.165 90.7535 160.413 91.0947 159.744 91.3989C159.315 91.5937 158.919 91.7733 158.69 91.8311C156.606 92.3577 154.436 92.6756 152.291 92.4993C151.111 92.4019 150.085 91.9724 149.057 91.5425C148.363 91.2519 147.668 90.961 146.925 90.7725C143.05 89.7893 138.763 88.6949 135.23 86.7467C132.925 85.4762 130.958 83.355 129.073 81.3225C128.329 80.5206 127.598 79.7325 126.865 79.0159C123.473 75.7048 120.865 72.4444 118.601 68.2385C117.053 69.6892 120.406 74.5258 121.406 75.8818C123.338 78.5003 124.312 80.7669 125.351 83.819C125.51 84.2851 125.669 84.746 125.827 85.2037C126.737 87.834 127.609 90.3581 128.119 93.1483C128.214 93.6627 128.321 94.1712 128.428 94.6788C128.62 95.5918 128.812 96.5021 128.927 97.4396C128.96 97.7089 128.981 97.9803 129.002 98.2517C129.044 98.8043 129.087 99.3572 129.231 99.8943C129.274 100.056 129.4 100.235 129.526 100.416C129.686 100.643 129.846 100.873 129.845 101.071C129.842 101.713 129.517 102.205 129.191 102.697C128.924 103.101 128.657 103.504 128.565 103.992C128.436 104.691 128.598 105.961 128.758 106.641C129.148 108.299 129.819 109.95 130.487 111.592C130.945 112.718 131.401 113.841 131.764 114.958C132.555 117.396 133.226 120.12 131.571 122.37C130.04 124.452 127.64 124.948 125.279 125.437L125.277 125.438C124.968 125.502 124.595 125.619 124.193 125.745C123.153 126.071 121.919 126.459 121.095 126.147C120.698 125.996 120.509 125.793 120.34 125.611C120.116 125.37 119.927 125.167 119.331 125.181C117.909 125.214 116.398 126.726 115.094 128.031C114.527 128.599 113.999 129.127 113.534 129.478C109.244 132.715 104.549 134.186 99.1511 134.359C98.6681 134.375 98.1582 134.325 97.6457 134.275C96.8819 134.2 96.1123 134.125 95.4176 134.265C95.0317 134.342 94.75 134.465 94.483 134.582C94.0279 134.781 93.6154 134.961 92.8031 134.866C90.6303 134.611 87.7971 133.927 85.8057 133.001C83.6847 132.015 82.2993 130.282 81.8465 127.965C81.306 125.201 83.5766 124.002 85.6725 122.982C87.5174 122.085 89.3934 121.247 91.2677 120.41C94.2097 119.096 97.1477 117.784 99.9556 116.248C102.465 114.876 105.172 113.267 107.293 111.341C107.503 111.15 107.776 110.924 108.072 110.678C108.899 109.99 109.912 109.148 110.271 108.503C110.84 107.482 110.817 107.43 110.377 106.414C110.296 106.226 110.201 106.006 110.092 105.741C108.157 107.167 107.034 103.846 106.322 101.743C106.164 101.276 106.026 100.869 105.905 100.588C105.147 98.8361 104.194 97.1425 103.248 95.4609C102.638 94.3772 102.031 93.2984 101.481 92.2123C100.213 89.7078 99.2905 86.9984 98.3777 84.3168C98.0991 83.4984 97.8214 82.6825 97.535 81.8759C97.2965 81.2041 97.0554 80.5338 96.8145 79.8639C95.6386 76.5942 94.466 73.3339 93.609 69.9602C93.2274 68.4575 92.8124 66.9644 92.3982 65.4744C90.6038 59.0189 88.8255 52.6211 89.8444 45.7512C90.3513 42.3342 91.3735 37.7333 93.7155 35.0807ZM191.342 35.9322C191.848 35.4975 192.357 35.0602 192.807 34.5653C192.48 36.3048 193.134 37.8639 193.787 39.4224C193.929 39.7598 194.07 40.0971 194.202 40.4363L189.141 38.3074C189.682 37.3586 190.508 36.649 191.342 35.9322ZM162.412 54.9682C160.562 55.9338 158.668 56.6836 156.729 57.4504C156.509 57.5372 156.259 57.6583 155.992 57.7875C155.212 58.1657 154.288 58.6132 153.57 58.4729C152.98 58.3575 152.675 57.6639 152.379 56.9904C152.278 56.762 152.179 56.5359 152.07 56.3355C150.493 53.4389 148.637 51.1158 146.348 48.7507C147.078 48.1907 150.029 49.6845 152.125 50.746C152.954 51.1655 153.649 51.5175 154.021 51.6485C155.337 52.1116 156.578 52.5799 157.868 53.1398C158.282 53.3197 158.833 53.4896 159.416 53.6696C160.541 54.0168 161.787 54.4016 162.412 54.9682ZM128.693 30.7511C125.937 29.5791 123.3 27.4481 121.018 25.5383C118.397 23.3456 116.039 21.0384 114.091 18.167C114.44 18.1767 114.926 18.5232 115.43 18.8825C116.563 19.6902 117.787 20.5624 117.742 17.816C117.722 16.5857 116.673 15.3906 115.651 14.2255C114.992 13.4737 114.343 12.7344 113.989 12.0061C114.988 11.4099 115.991 12.7056 117.027 14.0432C118.179 15.5301 119.37 17.0687 120.641 16.1168C122.498 14.7244 120.403 10.7964 119.097 8.34887C118.769 7.73338 118.491 7.21151 118.338 6.84711C119.481 6.0462 125.38 13.0416 127.955 16.0956C128.453 16.6872 128.828 17.1312 129.018 17.3416C129.289 17.6405 129.693 17.9735 130.116 18.3228C130.843 18.9216 131.627 19.5682 131.896 20.1723C132.15 20.742 132.227 22.5659 132.123 23.0976C131.986 23.8053 131.451 24.611 130.947 25.3722C130.659 25.8065 130.381 26.2263 130.191 26.6052C129.531 27.9253 128.962 29.2943 128.693 30.7511ZM206.469 52.2278C212.4 66.8241 193.061 79.6832 181.041 82.7082C180.097 82.9457 179.167 83.2207 178.236 83.4958C177.526 83.7058 176.815 83.9158 176.098 84.1093C174.898 84.4328 173.783 84.519 172.639 84.6074C172.061 84.6521 171.475 84.6973 170.868 84.7741C170.092 84.872 169.542 85.2467 168.987 85.6243C168.514 85.9466 168.038 86.2709 167.415 86.4272C165.387 86.9363 165.259 85.6075 165.105 84.0079C165.088 83.8259 165.07 83.6404 165.049 83.4537C164.178 75.7035 160.044 68.303 155.703 61.9206C157.601 61.1902 159.479 60.3977 161.351 59.6031C161.906 59.3671 162.562 58.9887 163.253 58.5895C164.556 57.8376 165.987 57.0115 167.121 56.9225C168.076 56.8479 169.418 57.4117 170.562 57.8919C170.956 58.0572 171.326 58.2126 171.648 58.3286C173.746 59.0833 175.847 59.7187 178.026 60.2159C178.683 60.3658 179.353 60.5257 180.032 60.6878C183.292 61.4659 186.76 62.2936 190.007 62.2996C190.276 62.3001 190.657 62.3262 191.092 62.3561C192.488 62.4517 194.44 62.5855 195.047 62.038C196.567 60.6679 194.388 59.6066 193.079 59.1608C189.249 57.8572 185.313 56.949 181.372 56.0397C177.283 55.0962 173.189 54.1515 169.202 52.7624C167.344 52.1148 165.494 51.4299 163.642 50.7443C161.479 49.9436 159.313 49.142 157.13 48.3979C156.17 48.071 155.199 47.7553 154.224 47.4386C151.649 46.6024 149.053 45.7589 146.598 44.6814C142.129 42.7202 137.629 40.2521 133.731 37.3115C133.511 37.1458 133.224 36.9584 132.913 36.7552C132.12 36.2368 131.17 35.6161 130.778 34.9937C130.519 34.5832 130.422 34.6167 130.398 34.5886C130.378 34.5645 130.413 34.4951 130.447 34.061C130.483 33.6108 130.851 33.0463 131.188 32.529C131.357 32.2706 131.518 32.0239 131.626 31.8092C132.832 29.4069 133.915 26.9429 134.814 24.4093C138.252 25.7917 141.605 27.4705 144.953 29.1468C147.611 30.4777 150.265 31.807 152.957 32.9851C159.078 35.6647 165.956 37.4952 172.471 38.9309C173.311 39.1159 174.187 39.2577 175.072 39.4009C177.11 39.7307 179.194 40.0678 180.979 40.9573C181.2 41.0673 181.42 41.181 181.641 41.2948C182.507 41.7419 183.379 42.1917 184.303 42.4317C184.658 43.0766 184.995 43.1968 185.316 42.792C185.517 42.555 185.781 42.4508 186.11 42.4792C186.673 42.5613 187.249 42.7788 187.795 42.9854C187.934 43.038 188.072 43.0898 188.206 43.1386C191.568 44.354 194.797 45.8991 197.998 47.4778C198.228 47.5911 198.459 47.7042 198.691 47.8174C199.985 48.4512 201.293 49.0911 202.528 49.8213C203.308 50.2827 204.008 50.7498 204.653 51.3933C204.867 51.6067 205.009 51.811 205.128 51.9825C205.44 52.4309 205.595 52.6546 206.469 52.2278ZM127.235 112.03C127.388 113.495 127.72 114.932 128.085 116.355C128.123 116.504 128.21 116.747 128.312 117.03C128.56 117.717 128.894 118.642 128.82 119.053C128.791 119.216 128.774 119.334 128.761 119.419C128.74 119.564 128.732 119.615 128.703 119.639C128.686 119.652 128.663 119.657 128.628 119.664C128.542 119.681 128.383 119.713 128.068 119.91C127.43 120.312 126.705 120.411 125.984 120.509C125.735 120.543 125.487 120.577 125.243 120.623C125.012 120.667 124.54 120.86 124.03 121.068C123.248 121.387 122.378 121.742 122.155 121.65C121.836 121.518 121.675 121.205 121.507 120.879C121.337 120.55 121.16 120.206 120.806 120.018C119.845 119.505 118.457 119.996 117.572 120.435C116.316 121.058 115.278 122.014 114.239 122.971C113.321 123.816 112.403 124.661 111.331 125.28C107.273 127.625 102.424 128.984 97.8497 129.604C97.4517 129.658 97.0523 129.718 96.652 129.777C94.56 130.089 92.444 130.404 90.3728 129.963C89.9793 129.879 89.5625 129.816 89.1389 129.753C87.4698 129.501 85.6945 129.234 84.8175 127.597C85.4408 127.41 86.0862 127.219 86.7491 127.023C95.9536 124.306 108.51 120.599 111.72 110.507C113.39 111.954 115.912 111.518 118.098 111.14C118.594 111.054 119.074 110.971 119.522 110.914C120.053 110.847 120.573 110.793 121.084 110.74C123.137 110.527 125.052 110.329 126.983 109.308C127.184 110.262 127.257 111.055 127.235 112.03ZM208.371 43.6244C203.981 43.993 199.764 42.007 196.976 38.5552L196.96 38.5347C196.278 37.6909 195.583 36.8291 195.162 35.8208C195.103 35.6563 195.044 35.4917 194.985 35.3271L194.884 35.0469C194.448 34.3389 194.623 33.996 195.411 34.018C195.547 33.8224 195.751 33.6656 195.956 33.5081C196.401 33.1666 196.851 32.8216 196.614 32.0715C196.411 31.4266 195.826 31.289 195.208 31.144C195.034 31.1031 194.858 31.0616 194.686 31.0079C195.056 30.3516 195.278 30.0214 195.815 29.433C195.878 29.4872 195.944 29.5436 196.011 29.6018L196.013 29.6032C197.504 30.8931 199.974 33.0279 200.869 30.1729C201.12 29.3725 200.956 28.6014 200.793 27.8369C200.664 27.2326 200.537 26.6323 200.615 26.0248C200.689 25.4555 201.373 23.9898 201.781 23.6411C203.955 21.7823 207.165 22.4556 209.541 23.4641C211.179 24.1594 211.536 24.4952 211.84 26.1694C211.926 26.6441 212.01 27.1188 212.095 27.5933C212.313 28.8208 212.531 30.0473 212.775 31.2709C212.144 30.9602 211.834 30.3998 211.521 29.8335C211.346 29.5164 211.169 29.1975 210.935 28.9195L210.911 28.9658L210.908 28.9714C210.69 29.3926 210.471 29.8149 210.252 30.236C209.913 30.0559 209.601 30.0729 209.316 30.288C208.914 30.9398 209.122 31.853 209.287 32.5774C209.307 32.6682 209.327 32.756 209.346 32.84C207.777 32.7306 207.157 34.4943 208.751 35.1654C210.402 35.8606 211.093 33.8438 211.118 32.5474C211.486 32.9673 211.851 33.0009 212.177 33.031C212.406 33.0522 212.617 33.0716 212.796 33.2222C213.229 33.5869 213.415 34.3639 213.586 35.2156C213.639 35.4809 213.707 35.7683 213.778 36.0694C214.082 37.3569 214.445 38.8973 213.995 40.0508C213.171 42.165 210.413 43.3195 208.371 43.6244ZM120.903 105.36C118.84 105.662 116.857 105.803 114.784 105.599C113.384 105.523 111.073 103.178 110.092 102.016C105.084 93.6597 101.302 81.7886 97.954 71.2803C96.991 68.2572 96.0638 65.3469 95.1537 62.6655C91.7483 46.5152 94.1862 42.6383 96.2666 39.3298C96.73 38.5929 97.1756 37.8841 97.535 37.0742C103.37 31.9627 115.256 33.6154 120.47 35.0807C129.858 38.8231 136.591 45.2927 140.068 48.633C141.304 49.8209 142.129 50.613 142.514 50.746C143.69 51.1514 154.484 70.035 159.734 79.4261C161.674 83.819 157.266 87.6345 154.915 88.9199C154.915 88.9199 147.554 88.1514 145.76 87.1017C143.369 87.7686 128.565 74.3192 127.629 72.2073C126.879 70.5178 121.298 65.6488 118.601 63.4254C115.893 63.19 113.534 66.9375 112.81 68.2385C112.449 68.8873 113.763 70.9038 115.106 72.9649C116.456 75.0368 117.836 77.1536 117.572 77.9713C117.047 79.6025 118.098 83.819 119.522 85.2961C121.882 87.5212 124.91 98.8994 126.129 104.31C125.11 104.334 124.082 104.605 123.055 104.876C122.337 105.066 121.618 105.256 120.903 105.36Z" fill="black"/>
<path fill-rule="evenodd" clip-rule="evenodd" d="M210.384 37.1174C209.742 37.352 208.458 38.0453 207.702 37.975C207.098 37.9186 206.583 37.1962 206.002 37.2107C204.436 37.2493 204.769 39.0551 205.548 40.0104C207.656 42.5947 212.161 39.6338 210.384 37.1174Z" fill="black"/>
<path fill-rule="evenodd" clip-rule="evenodd" d="M203.772 27.8171C201.649 28.419 202.823 33.0976 204.626 33.379C206.748 33.7107 207.027 29.8775 206.577 28.5048C205.504 29.1775 206.232 31.4706 204.846 30.8645C203.965 30.4787 204.053 28.5975 203.772 27.8171Z" fill="black"/>
</svg>
