<svg width="91" height="97" viewBox="0 0 91 97" fill="none" xmlns="http://www.w3.org/2000/svg">
<path d="M35.5175 13.2619L36.8506 7.89321L38.7837 13.0762C43.2527 25.0582 52.8199 34.1606 64.6118 37.5433L70.0322 39.0982L64.823 41.2576C53.4906 45.9552 45.0169 56.0835 41.9351 68.4948L40.602 73.8636L38.6689 68.6806C34.2 56.6986 24.6327 47.5962 12.8408 44.2135L7.42039 42.6586L12.6296 40.4992C23.962 35.8016 32.4357 25.6733 35.5175 13.2619Z" fill="#69D3FA" stroke="black" stroke-width="3.44543"/>
<path d="M79.2929 4.82864C76.8567 10.1516 69.7778 20.0786 60.9518 17.2025M70.1488 33.5387C72.7488 27.6877 80.1572 16.7051 88.9915 19.5834M79.253 4.51248C78.8791 8.29969 80.3295 16.5904 89.122 19.4555M70.25 33.6996C70.7532 29.4899 69.5597 20.3537 60.7598 17.4857" stroke="black" stroke-width="2.54848" stroke-linecap="round"/>
<path d="M14.5624 65.0666C15.9002 70.7437 20.9344 81.8234 30.3696 80.7254M17.8504 94.9323C16.4577 88.706 11.3109 76.5282 1.86565 77.6267M14.7161 64.7346C14.3067 68.5065 11.14 76.3233 1.74805 77.4159M17.6647 95.0999C18.0322 90.8895 21.1177 82.1949 30.5194 81.1005" stroke="black" stroke-width="2.54848" stroke-linecap="round"/>
</svg>
