<svg width="103" height="90" viewBox="0 0 103 90" fill="none" xmlns="http://www.w3.org/2000/svg">
<g clip-path="url(#clip0_109_1285)">
<path d="M41.9062 7.32434C41.9901 6.8288 42.0898 6.47607 42.2053 6.23398C42.2934 6.04961 42.3559 6.00043 42.3735 5.98935L42.3747 5.98862C42.3756 5.98807 42.3769 5.98734 42.3785 5.98645M41.9062 7.32434L42.3785 5.98645M41.9062 7.32434C40.2476 17.1345 46.4175 27.0946 54.9124 35.0574C53.5598 24.7701 51.6417 14.8811 45.0009 7.53458L45.0007 7.5344C44.4502 6.92524 43.7712 6.39503 43.166 6.12651C42.6066 5.87828 42.413 5.9672 42.3785 5.98645M41.9062 7.32434L42.3785 5.98645M77.2966 4.07524C77.3914 4.92897 77.2382 6.01871 76.9312 7.15875L76.9311 7.15918C74.0452 17.84 68.7026 27.8689 61.2345 36.5885L64.7826 40.0935C73.5331 32.4112 82.5633 24.9895 93.6502 23.8791C96.0444 23.6396 97.8894 23.9034 98.9012 24.7378C99.8608 25.5296 100.194 27.2458 99.3448 28.8871C98.459 30.5998 96.6716 32.0354 94.3471 33.4954C85.6435 38.9335 75.3246 41.9162 64.7061 42.0397L64.538 47.0317C75.4701 47.8964 85.8711 51.6017 94.4916 57.676C95.96 58.7146 97.2929 60.0349 98.0125 61.2968C98.7141 62.5272 98.629 63.2526 98.2712 63.7943C98.0185 64.1768 97.5442 64.5649 96.7233 64.8986C95.9035 65.2318 94.8959 65.4453 93.8148 65.5706L93.8088 65.5713C81.9722 66.9714 70.1307 60.7303 63.0835 51.6384C62.1598 50.2284 61.2289 48.8472 60.3133 47.4955L56.0737 50.1393C56.9248 51.6266 57.8886 53.0731 58.9526 54.4647C64.6171 63.1415 69.3058 71.8666 69.02 81.0967L69.02 81.0976C68.9284 84.0915 67.9652 86.3031 66.2327 87.0301L66.231 87.0308C64.8198 87.6241 62.7253 87.2353 61.1511 86.0266C59.5835 84.8229 58.515 83.0286 57.4998 80.8391C53.6234 72.4047 52.3181 63.221 53.673 54.2288C53.9131 53.004 54.1423 51.7884 54.3682 50.5871L49.4751 49.5636C49.1869 50.8137 48.9462 52.0692 48.7525 53.3281C46.99 62.2774 44.8125 70.832 39.5616 77.9054C38.5675 79.2418 37.253 80.5006 35.8837 81.2589C34.5284 82.0094 33.3552 82.1563 32.3475 81.7869L32.3471 81.7868C31.3281 81.4134 30.6896 80.6101 30.3784 79.2213C30.0516 77.7627 30.1772 75.9219 30.6036 74.22C33.0931 64.3811 38.7751 55.3977 46.9697 48.4355L44.7992 45.1385C45.1585 45.2412 45.5173 45.3455 45.8757 45.4512L47.3776 40.683C35.2007 36.6027 23.4179 31.531 16.5664 22.536C15.9809 21.7661 15.5589 20.9844 15.3984 20.3551C15.2519 19.7802 15.3777 19.6324 15.4308 19.57L15.4322 19.5684L15.4337 19.5666C15.5269 19.4568 15.7841 19.2566 16.4667 19.1541C17.1445 19.0524 17.9893 19.0892 18.8868 19.2207L18.8867 19.2207L18.8972 19.2222C32.2468 21.1215 42.6971 30.5392 52.6885 40.1121L57.8661 45.0728L56.895 37.9683L56.85 37.6391L60.2157 37.5818C61.3346 25.1564 62.9306 12.822 71.5485 4.65227L71.549 4.65172C72.4229 3.82278 73.5108 3.09926 74.5336 2.74195C75.5527 2.3859 76.1974 2.48319 76.6133 2.73639L76.6137 2.73658C76.9531 2.94313 77.2089 3.28488 77.2966 4.07524ZM24.3579 41.009C30.7852 41.7891 37.1308 43.0334 43.3338 44.7288C31.945 50.0999 18.2723 51.4943 5.84759 48.4865L5.84488 48.4859C4.92417 48.264 4.12903 48.0179 3.51078 47.7028C2.8943 47.3886 2.65737 47.1092 2.56516 46.925L2.56437 46.9235C2.48675 46.7687 2.41252 46.4774 2.70464 45.8767C3.00949 45.2499 3.60937 44.551 4.36291 43.9781C9.31794 40.212 16.8214 40.094 24.3578 41.009L24.3579 41.009Z" fill="#90EE90" stroke="#202020" stroke-width="5"/>
<path d="M63.2713 44.8979C63.2713 50.5912 58.0908 55.6202 51.164 55.6202C44.2371 55.6202 39.0566 50.5912 39.0566 44.8979C39.0566 39.2047 44.2371 34.1757 51.164 34.1757C58.0908 34.1757 63.2713 39.2047 63.2713 44.8979Z" fill="#87CEEB" stroke="#202020" stroke-width="5"/>
</g>
<defs>
<clipPath id="clip0_109_1285">
<rect width="102.326" height="89.7959" fill="white"/>
</clipPath>
</defs>
</svg>
