<svg width="976" height="669" viewBox="0 0 976 669" fill="none" xmlns="http://www.w3.org/2000/svg">
<path d="M765.513 569.404C765.513 569.404 796.509 559.753 800.923 573.521C805.336 587.29 724.998 608.206 724.998 608.206L765.513 569.404Z" fill="black"/>
<path d="M871.576 590.551C871.576 590.551 902.572 580.9 906.986 594.668C911.399 608.437 850.989 638.906 850.989 638.906L871.576 590.551Z" fill="black"/>
<path d="M742.784 551.815L713.007 589.135C704.377 599.939 718.31 614.202 729.312 605.802L768.246 576.091L773.944 543.547H742.422L742.784 551.815Z" fill="#DCD6EB"/>
<path d="M742.784 551.815L713.007 589.135C704.377 599.939 718.31 614.202 729.312 605.802L768.246 576.091L773.944 543.547H742.422L742.784 551.815Z" fill="white" fill-opacity="0.5"/>
<path d="M742.784 551.815L713.007 589.135C704.377 599.939 718.31 614.202 729.312 605.802L768.246 576.091L773.944 543.547H742.422L742.784 551.815Z" stroke="black" stroke-width="3" stroke-linecap="round" stroke-linejoin="round"/>
<path d="M736.558 141.952L776.118 89.0842C758.726 93.3334 743.574 105.422 736.031 122.88L710.239 182.632L651.673 227.001L624.894 207.105C619.228 202.889 612.08 210.004 616.263 215.703L623.28 225.222L606.448 236.652C599.728 241.23 600.057 251.244 607.106 255.328L611.026 257.601L629.9 268.57C636.916 272.655 645.546 272.753 652.661 268.834L736.92 222.488C736.92 222.488 740.411 220.479 752.237 208.621L739.357 194.753C725.753 180.128 724.601 157.894 736.558 141.886V141.952Z" fill="#DCD6EB"/>
<path d="M611.026 257.601L607.106 255.328C600.057 251.244 599.728 241.23 606.448 236.652L623.28 225.222L616.263 215.703C612.08 210.004 619.228 202.889 624.894 207.105L651.673 227.001L710.239 182.632L736.031 122.88C743.574 105.422 758.726 93.3334 776.118 89.0842L736.558 141.952V141.886C724.601 157.894 725.753 180.128 739.357 194.753L752.237 208.621C740.411 220.479 736.92 222.488 736.92 222.488L652.661 268.834C645.546 272.753 636.916 272.655 629.9 268.57L611.026 257.601ZM611.026 257.601L628.023 243.503M625.289 264.782L642.285 250.684" stroke="black" stroke-width="3" stroke-linecap="round" stroke-linejoin="round"/>
<path d="M838.636 631.791C837.944 642.265 852.042 646.251 856.95 636.995L878.822 595.624L880.172 569.536H842.72L838.636 631.791Z" fill="#DCD6EB"/>
<path d="M838.636 631.791C837.944 642.265 852.042 646.251 856.95 636.995L878.822 595.624L880.172 569.536H842.72L838.636 631.791Z" fill="white" fill-opacity="0.5"/>
<path d="M838.636 631.791C837.944 642.265 852.042 646.251 856.95 636.995L878.822 595.624L880.172 569.536H842.72L838.636 631.791Z" stroke="black" stroke-width="3" stroke-linecap="round" stroke-linejoin="round"/>
<path d="M971.845 306.813L964.071 297.985L966.904 297.129C972.965 295.317 974.315 287.313 969.144 283.623L951.653 271.139L920.888 224.629V159.937C920.888 137.307 905.834 117.478 884.029 111.384L876.485 109.276L869.107 227.594L929.88 323.743C934.096 330.397 942.397 333.164 949.775 330.364L961.6 325.852L967.76 323.48C974.578 320.878 976.687 312.281 971.877 306.813H971.845Z" fill="#DCD6EB"/>
<path d="M961.6 325.852L949.775 330.364C942.397 333.164 934.096 330.397 929.88 323.743L869.107 227.594L876.485 109.276L884.029 111.384C905.834 117.478 920.888 137.307 920.888 159.937V224.629L951.653 271.139L969.144 283.623C974.315 287.313 972.965 295.317 966.904 297.129L964.071 297.985L971.845 306.813H971.877C976.687 312.281 974.578 320.878 967.76 323.48L961.6 325.852ZM961.6 325.852L951.653 309.843M939.399 313.038L949.347 329.047" stroke="black" stroke-width="3" stroke-linecap="round" stroke-linejoin="round"/>
<path d="M805.862 89.5455C795.848 86.7457 785.637 86.7786 776.118 89.0844L736.558 141.952C724.601 157.927 725.787 180.194 739.358 194.819L752.237 208.687C753.554 217.778 751.282 228.121 747.823 237.772C754.18 244.821 766.532 254.538 788.009 257.766C826.35 263.531 861.365 253.451 873.058 249.531L859.915 228.813L869.072 201.44V227.627L876.451 109.309L805.829 89.5785L805.862 89.5455ZM796.606 156.017C796.606 156.017 781.322 187.671 809.65 202.033C781.289 187.704 796.606 156.017 796.606 156.017Z" fill="#A37FFF" stroke="black" stroke-width="3" stroke-linecap="round" stroke-linejoin="round"/>
<path d="M788.009 257.733C766.5 254.505 754.147 244.788 747.823 237.739C746.473 241.461 744.99 245.084 743.409 248.477C735.109 266.363 731.288 285.995 732.144 305.692L742.421 543.514H773.944L804.907 367.223L842.787 568.943V569.536H880.206L892.789 323.611C894.106 297.721 887.354 272.061 873.486 250.157L873.058 249.498C861.398 253.418 826.35 263.497 788.009 257.733Z" fill="#DCD6EB"/>
<path d="M788.009 257.733C766.5 254.505 754.147 244.788 747.823 237.739C746.473 241.461 744.99 245.084 743.409 248.477C735.109 266.363 731.288 285.995 732.144 305.692L742.421 543.514H773.944L804.907 367.223L842.787 568.943V569.536H880.206L892.789 323.611C894.106 297.721 887.354 272.061 873.486 250.157L873.058 249.498C861.398 253.418 826.35 263.497 788.009 257.733Z" fill="#2F2BFF" fill-opacity="0.1"/>
<path d="M788.009 257.733C766.5 254.505 754.147 244.788 747.823 237.739C746.473 241.461 744.99 245.084 743.409 248.477C735.109 266.363 731.288 285.995 732.144 305.692L742.421 543.514H773.944L804.907 367.223L842.787 568.943V569.536H880.206L892.789 323.611C894.106 297.721 887.354 272.061 873.486 250.157L873.058 249.498C861.398 253.418 826.35 263.497 788.009 257.733Z" stroke="black" stroke-width="3" stroke-linecap="round" stroke-linejoin="round"/>
<path d="M801.085 88.4577C801.085 88.4577 820.289 112.339 861.957 105.224C845.29 82.0345 845.29 78.9712 845.29 78.9712L801.085 88.4577Z" fill="black"/>
<path d="M964.037 298.018L952.64 286.127" stroke="black" stroke-width="3" stroke-miterlimit="10" stroke-linecap="round" stroke-linejoin="round"/>
<path d="M817.061 90.5666C839.237 90.5666 857.214 72.5895 857.214 50.4137C857.214 28.2378 839.237 10.2607 817.061 10.2607C794.885 10.2607 776.908 28.2378 776.908 50.4137C776.908 72.5895 794.885 90.5666 817.061 90.5666Z" fill="#DCD6EB" stroke="black" stroke-width="3" stroke-linecap="round" stroke-linejoin="round"/>
<path d="M781.651 42.7515L794.941 51.6825L789.625 71.99" stroke="black" stroke-width="3" stroke-linecap="round" stroke-linejoin="round"/>
<path d="M862.353 53.9711C862.353 29.8266 842.787 10.2607 818.642 10.2607C811.659 10.2607 805.071 11.9406 799.208 14.8722L861.924 105.225C861.924 105.225 862.32 66.0598 862.32 53.9711H862.353Z" fill="black" stroke="black" stroke-width="3" stroke-linecap="round" stroke-linejoin="round"/>
<path d="M804.907 367.223L792.489 321.042" stroke="black" stroke-width="3" stroke-miterlimit="10" stroke-linecap="round" stroke-linejoin="round"/>
<path d="M131.997 579.877C131.997 579.877 96.554 569.962 81.402 575.693C47.8698 588.342 158.612 638.739 158.612 638.739L132.03 579.877H131.997Z" fill="black"/>
<path d="M47.133 456.535H4.59717V470.814C4.76225 473.813 6.88079 476.812 10.9803 479.151C19.3719 483.966 32.8535 484.131 41.0801 479.536C45.3171 477.17 47.2981 474.006 47.1055 470.814H47.133V456.535Z" fill="black" stroke="black" stroke-width="3" stroke-miterlimit="10" stroke-linecap="round" stroke-linejoin="round"/>
<path d="M40.7246 448.226C49.1163 453.041 49.2814 460.662 41.0548 465.257C32.8283 469.851 19.3742 469.686 10.955 464.871C2.56342 460.056 2.39834 452.435 10.6249 447.84C18.8514 443.246 32.3055 443.411 40.7246 448.226Z" fill="#A37FFF" stroke="black" stroke-width="3" stroke-linecap="round" stroke-linejoin="round"/>
<path d="M89.7518 431.938H47.2159V446.217C47.381 449.216 49.4996 452.215 53.5991 454.554C61.9907 459.368 75.4723 459.534 83.6989 454.939C87.9359 452.573 89.9169 449.409 89.7243 446.217H89.7518V431.938Z" fill="black" stroke="black" stroke-width="3" stroke-miterlimit="10" stroke-linecap="round" stroke-linejoin="round"/>
<path d="M83.37 423.601C91.7616 428.416 91.9267 436.037 83.7002 440.632C75.4737 445.227 62.0196 445.062 53.6004 440.247C45.2088 435.432 45.0437 427.811 53.2703 423.216C61.4968 418.621 74.9509 418.786 83.37 423.601Z" fill="#F2C94C" stroke="black" stroke-width="3" stroke-linecap="round" stroke-linejoin="round"/>
<path d="M132.48 407.286H89.9441V421.565C90.1092 424.564 92.2277 427.563 96.3272 429.902C104.719 434.717 118.2 434.882 126.427 430.287C130.664 427.921 132.645 424.757 132.452 421.565H132.48V407.286Z" fill="black" stroke="black" stroke-width="3" stroke-miterlimit="10" stroke-linecap="round" stroke-linejoin="round"/>
<path d="M126.069 398.949C134.46 403.764 134.625 411.385 126.399 415.98C118.172 420.574 104.718 420.409 96.2989 415.595C87.9073 410.78 87.7422 403.158 95.9687 398.564C104.195 393.969 117.649 394.134 126.069 398.949Z" fill="#FFA6CC" stroke="black" stroke-width="3" stroke-linecap="round" stroke-linejoin="round"/>
<path d="M238.391 515.053C238.391 515.053 185.392 517.688 176.333 531.127C163.586 550.1 274.426 546.444 274.426 546.444L238.391 515.02V515.053Z" fill="black"/>
<path d="M234.965 210.463C231.078 215.173 230.518 221.827 233.582 227.13L256.804 267.547C261.086 274.991 272.483 272.191 272.779 263.594L273.438 245.51L281.838 235.497L250.446 191.622L234.965 210.463Z" fill="#E7E4F1" stroke="black" stroke-width="3" stroke-linecap="round" stroke-linejoin="round"/>
<path d="M293.433 81.4727L328.974 100.446C352.526 112.995 358.554 144.057 341.392 164.512L281.904 235.496L250.513 191.621L285.956 148.504L255.289 131.013L254.927 120.209" fill="#FFA6CC"/>
<path d="M293.433 81.4727L328.974 100.446C352.526 112.995 358.554 144.057 341.392 164.512L281.904 235.496L250.513 191.621L285.956 148.504L255.289 131.013L254.927 120.209" stroke="black" stroke-width="3" stroke-linecap="round" stroke-linejoin="round"/>
<path d="M256.31 252.395L254.828 108.055L106.634 151.666L113.683 272.224C141.023 274.892 216.388 282.633 256.31 252.395Z" fill="#FFA6CC" stroke="black" stroke-width="3" stroke-linecap="round" stroke-linejoin="round"/>
<path d="M285.527 530.204L258.681 510.539L258.582 500.064L214.971 505.961L218.462 532.378C218.792 534.881 220.702 536.858 223.173 537.286L278.247 547.135C288.129 548.913 293.597 536.1 285.494 530.204H285.527Z" fill="#DCD6EB" stroke="black" stroke-width="3" stroke-linecap="round" stroke-linejoin="round"/>
<path d="M108.017 588.737C107.886 593.184 109.796 597.433 113.189 600.299L158.612 638.739C167.769 646.48 180.978 636.203 175.707 625.432L158.085 589.231L159.402 579.877L108.742 563.572L108.017 588.737Z" fill="#DCD6EB" stroke="black" stroke-width="3" stroke-linecap="round" stroke-linejoin="round"/>
<path d="M256.31 252.395C216.388 279.339 141.023 274.892 113.683 272.224L116.088 310.598L108.742 563.571L159.403 579.876L193.001 340.342L214.971 505.961L258.583 500.065L256.31 252.395Z" fill="#DCD6EB"/>
<path d="M256.31 252.395C216.388 279.339 141.023 274.892 113.683 272.224L116.088 310.598L108.742 563.571L159.403 579.876L193.001 340.342L214.971 505.961L258.583 500.065L256.31 252.395Z" fill="white" fill-opacity="0.5"/>
<path d="M256.31 252.395C216.388 279.339 141.023 274.892 113.683 272.224L116.088 310.598L108.742 563.571L159.403 579.876L193.001 340.342L214.971 505.961L258.583 500.065L256.31 252.395Z" stroke="black" stroke-width="3" stroke-linecap="round" stroke-linejoin="round"/>
<path d="M142.472 306.678L114.243 374.434L115.528 330.657L142.472 306.678Z" fill="black"/>
<path d="M75.8693 314.715L71.5213 321.435C65.4605 330.756 74.2553 342.582 84.9276 339.518L120.7 329.175C145.931 321.863 151.695 288.693 130.351 273.343L113.091 260.925L58.6421 301.77L75.8693 314.715Z" fill="#E7E4F1" stroke="black" stroke-width="3" stroke-linecap="round" stroke-linejoin="round"/>
<path d="M300.472 326.551L425.163 254.548V109.525L383.013 133.847V184.279L342.761 207.5V257.107L300.472 281.512V326.551Z" fill="#F0EDF7" stroke="black" stroke-width="3" stroke-miterlimit="10" stroke-linecap="round" stroke-linejoin="round"/>
<path d="M342.898 351.038L467.589 279.063V134.011L425.438 158.361V208.766L385.186 232.015V281.594L342.898 306.026V351.038Z" fill="#DCD6EB"/>
<path d="M342.898 351.038L467.589 279.063V134.011L425.438 158.361V208.766L385.186 232.015V281.594L342.898 306.026V351.038Z" fill="#2F2BFF" fill-opacity="0.1"/>
<path d="M342.898 351.038L467.589 279.063V134.011L425.438 158.361V208.766L385.186 232.015V281.594L342.898 306.026V351.038Z" stroke="black" stroke-width="3" stroke-linecap="round" stroke-linejoin="round"/>
<path d="M425.164 109.525L467.589 134.012L425.439 158.361L383.013 133.847L425.164 109.525Z" fill="#F0EDF7" stroke="black" stroke-width="3" stroke-miterlimit="10" stroke-linecap="round" stroke-linejoin="round"/>
<path d="M425.439 158.361V208.766L383.013 184.279V133.846L425.439 158.361Z" fill="#F0EDF7" stroke="black" stroke-width="3" stroke-miterlimit="10" stroke-linecap="round" stroke-linejoin="round"/>
<path d="M425.439 208.766L385.186 232.015L342.76 207.5L383.013 184.279L425.439 208.766Z" fill="#F7F7F8" stroke="black" stroke-width="3" stroke-miterlimit="10" stroke-linecap="round" stroke-linejoin="round"/>
<path d="M385.186 232.015V281.594L342.76 257.107V207.5L385.186 232.015Z" fill="#F0EDF7" stroke="black" stroke-width="3" stroke-miterlimit="10" stroke-linecap="round" stroke-linejoin="round"/>
<path d="M385.186 281.594L342.898 306.026L300.472 281.511L342.761 257.107L385.186 281.594Z" fill="#F0EDF7" stroke="black" stroke-width="3" stroke-miterlimit="10" stroke-linecap="round" stroke-linejoin="round"/>
<path d="M342.898 351.038L300.472 326.551V281.511L342.898 306.026V351.038Z" fill="#F0EDF7" stroke="black" stroke-width="3" stroke-miterlimit="10" stroke-linecap="round" stroke-linejoin="round"/>
<path d="M425.439 208.766V303.368" stroke="black" stroke-width="3" stroke-miterlimit="10" stroke-linecap="round" stroke-linejoin="round"/>
<path d="M385.186 281.594V326.551" stroke="black" stroke-width="3" stroke-miterlimit="10" stroke-linecap="round" stroke-linejoin="round"/>
<path d="M130.911 170.705L74.6833 233.092L111.378 259.706L113.09 260.925L58.6419 301.77L17.8302 271.103C-1.90041 256.281 -4.0744 227.525 13.1528 209.869L87.3978 133.912C101.232 119.748 118.064 108.812 136.642 101.895L207.165 75.6751C222.317 70.0424 238.358 68.0332 254.07 69.5484C267.707 70.8659 281.113 74.8516 293.466 81.4724L333.19 102.982" fill="#FFA6CC"/>
<path d="M130.911 170.705L74.6833 233.092L111.378 259.707L113.09 260.925L58.6419 301.77L17.8302 271.103C-1.90041 256.281 -4.0744 227.525 13.1528 209.869L87.3978 133.912C101.232 119.748 118.064 108.812 136.642 101.895L207.165 75.6751C222.317 70.0424 238.358 68.0332 254.07 69.5484C267.707 70.8659 281.113 74.8516 293.466 81.4724L333.19 102.982" stroke="black" stroke-width="3" stroke-linecap="round" stroke-linejoin="round"/>
<path d="M254.861 116.916L255.223 130.981L285.889 148.472L294.124 137.931" stroke="black" stroke-width="3" stroke-linecap="round" stroke-linejoin="round"/>
<path d="M151.563 96.3282L166.979 76.894L198.6 132.495L151.563 96.3282Z" fill="#FFA6CB" stroke="black" stroke-width="3" stroke-linecap="round" stroke-linejoin="round"/>
<path d="M206.607 91.6179L185.46 109.405L177.983 95.8341L136.611 101.895L152.685 96.3282L166.981 76.894L206.607 91.6179Z" fill="black"/>
<path d="M198.599 132.496L207.131 75.6755L230.88 69.0547L198.599 132.496Z" stroke="black" stroke-width="3" stroke-linecap="round" stroke-linejoin="round"/>
<path d="M198.599 271.499V132.496" stroke="black" stroke-width="3" stroke-linecap="round" stroke-linejoin="round"/>
<path d="M123.796 178.61L111.74 239.35L109.039 192.807L123.796 178.61Z" fill="black"/>
<path d="M198.601 91.6179C220.777 91.6179 238.754 73.6408 238.754 51.4649C238.754 29.2891 220.777 11.312 198.601 11.312C176.425 11.312 158.448 29.2891 158.448 51.4649C158.448 73.6408 176.425 91.6179 198.601 91.6179Z" fill="#E7E4F1" stroke="black" stroke-width="3" stroke-linecap="round" stroke-linejoin="round"/>
<path d="M238.521 50.1675L217.84 59.9641L218.928 80.6457" stroke="black" stroke-width="3" stroke-linecap="round" stroke-linejoin="round"/>
<path d="M75.8679 314.715L86.9355 323.115" stroke="black" stroke-width="3" stroke-miterlimit="10" stroke-linecap="round" stroke-linejoin="round"/>
<path d="M193.001 340.342L197.283 312.081" stroke="black" stroke-width="3" stroke-linecap="round" stroke-linejoin="round"/>
<path d="M154.371 83.4147C181.052 87.1369 263.498 17.7339 222.819 3.89944C189.748 -7.33284 130.589 23.3995 130.852 60.6537C131.05 89.0473 180.755 56.1081 171.466 47.511C162.177 38.9138 127.69 79.6926 154.371 83.4477V83.4147Z" fill="#A37FFF" stroke="black" stroke-width="3" stroke-linecap="round" stroke-linejoin="round"/>
<path d="M664.975 659.359C608.978 679.122 588.666 661.555 576.039 654.418C594.705 646.732 637.306 632.349 658.387 636.301C684.738 641.242 688.307 651.124 664.975 659.359Z" fill="black"/>
<path d="M665.218 638.469C669.896 634.45 671.576 627.928 669.369 622.197L535.339 270.176C533.396 265.07 528.784 261.48 523.382 260.887C520.846 260.59 518.375 261.018 516.136 261.974V261.908L515.905 262.04C515.345 262.27 514.851 262.632 514.324 262.962L467.451 289.972L477.498 314.808L375.551 465.802C373.278 469.161 372.521 473.312 373.443 477.264C374.365 481.217 376.901 484.61 380.393 486.619L597.364 610.8L619.301 664.952L660.87 640.939C662.419 640.347 663.868 639.556 665.186 638.469H665.218Z" fill="#F2C94C" stroke="black" stroke-width="3" stroke-linecap="round" stroke-linejoin="round"/>
<path d="M324.055 511.132C318.785 504.544 340.525 501.25 348.759 509.485C356.994 517.719 381.699 540.777 381.699 540.777C364.68 533.64 329.325 517.719 324.055 511.132Z" fill="black"/>
<path d="M489.454 296.658C487.51 291.553 482.899 287.963 477.497 287.37C472.095 286.777 466.759 289.181 463.728 293.694L336.912 481.415C332.729 487.607 331.312 495.282 332.959 502.562C334.606 509.841 339.251 516.133 345.707 519.888L586.723 659.781C615.907 676.744 629.972 664.787 617.917 633.264L489.454 296.658Z" fill="#F2C94C" stroke="black" stroke-width="3" stroke-linecap="round" stroke-linejoin="round"/>
<path d="M491.728 517.945L451.706 495.052L443.999 375.977L499.435 407.697L491.728 517.945Z" fill="black"/>
<path d="M491.727 555.331C491.727 542.419 482.767 526.805 471.733 520.481C460.698 514.157 451.738 519.526 451.738 532.438C451.738 545.35 460.698 560.963 471.733 567.288C482.767 573.612 491.727 568.243 491.727 555.331Z" fill="black"/>
</svg>
