<svg width="407" height="135" viewBox="0 0 407 135" fill="none" xmlns="http://www.w3.org/2000/svg">
<rect x="2" y="29" width="368" height="103.298" rx="22" fill="#BACDE6" stroke="black" stroke-width="4"/>
<path d="M114.267 47.7621H118.555V77.4901H114.267V47.7621ZM117.595 58.7381H122.843V62.2261H117.595V58.7381ZM96.4748 66.8341H98.9708C103.963 66.8341 107.899 66.6741 112.251 65.9061L112.667 69.4261C108.187 70.2261 104.123 70.3541 98.9708 70.3541H96.4748V66.8341ZM96.4748 50.5141H110.299V53.9381H100.699V68.5301H96.4748V50.5141ZM124.76 63.7941H151.608V67.1861H124.76V63.7941ZM128.12 73.5221H149.016V76.9141H128.12V73.5221ZM128.12 68.8181H132.376V74.9941H128.12V68.8181ZM128.056 48.4661H148.344V56.6901H132.312V59.7621H128.088V53.6821H144.152V51.6981H128.056V48.4661ZM128.088 58.7701H148.92V61.9701H128.088V58.7701ZM168.229 50.0661H171.685V54.3861C171.685 61.7141 169.125 68.5941 163.525 71.3461L160.965 67.9221C165.957 65.5861 168.229 59.8901 168.229 54.3861V50.0661ZM169.093 50.0661H172.485V54.3861C172.485 59.6981 174.597 65.1061 179.333 67.4101L176.773 70.8021C171.429 68.0821 169.093 61.4901 169.093 54.3861V50.0661ZM180.517 47.7941H184.805V77.4261H180.517V47.7941ZM183.845 59.1861H189.093V62.7381H183.845V59.1861ZM210.082 47.8261H214.338V65.3941H210.082V47.8261ZM213.122 54.7701H218.274V58.2901H213.122V54.7701ZM195.042 66.6741H214.338V77.1061H195.042V66.6741ZM210.178 70.0021H199.234V73.7461H210.178V70.0021ZM192.066 60.9141H194.562C200.386 60.9141 203.97 60.8181 208.066 60.0501L208.45 63.4101C204.29 64.2101 200.546 64.3701 194.562 64.3701H192.066V60.9141ZM192.034 49.2661H205.57V58.2901H196.29V62.8021H192.066V55.1221H201.378V52.6581H192.034V49.2661ZM220.48 59.2821H247.296V62.6421H220.48V59.2821ZM223.776 54.3541H244.128V57.6821H223.776V54.3541ZM223.776 48.3381H243.872V51.7301H228V57.2341H223.776V48.3381ZM223.52 64.3061H244V72.1461H227.744V74.7061H223.552V69.1381H239.808V67.5061H223.52V64.3061ZM223.552 73.9381H244.768V77.2021H223.552V73.9381ZM249.885 62.8981H276.669V66.2901H249.885V62.8981ZM253.117 73.5221H273.661V76.9141H253.117V73.5221ZM253.117 68.2741H257.373V74.6101H253.117V68.2741ZM263.293 48.6581C269.725 48.6581 274.013 50.9941 274.013 54.7701C274.013 58.5461 269.725 60.8821 263.293 60.8821C256.829 60.8821 252.573 58.5461 252.573 54.7701C252.573 50.9941 256.829 48.6581 263.293 48.6581ZM263.293 52.0501C259.293 52.0501 256.957 52.9781 256.957 54.7701C256.957 56.5941 259.293 57.4901 263.293 57.4901C267.293 57.4901 269.629 56.5941 269.629 54.7701C269.629 52.9781 267.293 52.0501 263.293 52.0501ZM52.1383 87.8421C56.5543 87.8421 59.7863 91.9381 59.7863 98.4021C59.7863 104.93 56.5543 109.026 52.1383 109.026C47.6903 109.026 44.4903 104.93 44.4903 98.4021C44.4903 91.9381 47.6903 87.8421 52.1383 87.8421ZM52.1383 91.7141C49.9943 91.7141 48.5543 94.0501 48.5543 98.4021C48.5543 102.818 49.9943 105.186 52.1383 105.186C54.3143 105.186 55.7223 102.818 55.7223 98.4021C55.7223 94.0501 54.3143 91.7141 52.1383 91.7141ZM64.6503 85.7621H68.8743V115.49H64.6503V85.7621ZM58.5383 96.4501H66.4423V99.8741H58.5383V96.4501ZM77.1598 103.042H98.9198V106.242H77.1598V103.042ZM88.0078 107.138C93.4478 107.138 96.6798 108.642 96.6798 111.33C96.6798 113.986 93.4478 115.458 88.0078 115.458C82.5998 115.458 79.3358 113.986 79.3358 111.33C79.3358 108.642 82.5998 107.138 88.0078 107.138ZM88.0078 110.05C85.3518 110.05 83.8798 110.402 83.8798 111.33C83.8798 112.226 85.3518 112.61 88.0078 112.61C90.6638 112.61 92.1038 112.226 92.1038 111.33C92.1038 110.402 90.6638 110.05 88.0078 110.05ZM85.9278 100.738H90.1838V105.122H85.9278V100.738ZM73.8638 96.4501H75.3678C77.7998 96.4501 79.6238 96.3861 81.8958 95.9381L82.2158 99.2341C79.7838 99.7141 77.9278 99.7461 75.3678 99.7461H73.8638V96.4501ZM73.8638 86.9781H81.6078V90.2421H78.0558V98.8181H73.8638V86.9781ZM82.9838 96.4501H84.5838C88.3278 96.4501 89.9598 96.3861 91.9438 95.9061L92.2318 99.2021C90.2158 99.6821 88.4878 99.7461 84.5838 99.7461H82.9838V96.4501ZM82.9838 86.9781H91.2398V90.2421H87.1758V98.8181H82.9838V86.9781ZM94.3118 85.7941H98.5358V101.57H94.3118V85.7941ZM90.4718 91.5221H96.7118V94.6901H90.4718V91.5221ZM124.357 85.7941H128.421V115.426H124.357V85.7941ZM112.613 97.1541H118.949V100.514H112.613V97.1541ZM118.117 86.4341H122.085V114.114H118.117V86.4341ZM111.653 89.2821H115.749C115.749 97.7301 113.221 104.45 104.901 109.282L102.501 106.306C109.253 102.242 111.653 97.3141 111.653 90.1461V89.2821ZM104.165 89.2821H112.997V92.6741H104.165V89.2821ZM140.562 88.2261H154.674V102.53H140.562V88.2261ZM150.482 91.5861H144.754V99.1701H150.482V91.5861ZM158.77 85.7941H163.026V107.394H158.77V85.7941ZM161.81 94.3381H166.962V97.8261H161.81V94.3381ZM143.922 111.522H164.082V114.914H143.922V111.522ZM143.922 105.282H148.178V113.218H143.922V105.282ZM169.167 97.2821H195.983V100.642H169.167V97.2821ZM172.463 92.3541H192.815V95.6821H172.463V92.3541ZM172.463 86.3381H192.559V89.7301H176.687V95.2341H172.463V86.3381ZM172.207 102.306H192.687V110.146H176.431V112.706H172.239V107.138H188.495V105.506H172.207V102.306ZM172.239 111.938H193.455V115.202H172.239V111.938ZM205.581 103.522H208.813V104.642C208.813 109.186 206.829 113.346 202.189 115.042L200.109 111.938C203.981 110.594 205.581 107.586 205.581 104.642V103.522ZM206.669 103.522H209.741V104.642C209.741 107.586 211.149 110.69 214.829 112.226L213.069 115.33C208.365 113.57 206.669 109.058 206.669 104.642V103.522ZM216.397 103.522H219.437V104.642C219.437 108.77 217.709 113.474 213.069 115.33L211.309 112.226C214.957 110.53 216.397 107.298 216.397 104.642V103.522ZM217.389 103.522H220.589V104.642C220.589 107.778 222.157 110.69 226.125 111.938L223.981 115.042C219.309 113.41 217.389 109.378 217.389 104.642V103.522ZM213.005 92.6421H220.013V96.0981H213.005V92.6421ZM206.765 87.2981C211.181 87.2981 214.573 90.2741 214.573 94.4021C214.573 98.5301 211.181 101.506 206.765 101.506C202.317 101.506 198.957 98.5301 198.957 94.4021C198.957 90.2741 202.317 87.2981 206.765 87.2981ZM206.765 90.8181C204.589 90.8181 203.021 92.1621 203.021 94.4021C203.021 96.6421 204.589 97.9861 206.765 97.9861C208.909 97.9861 210.509 96.6421 210.509 94.4021C210.509 92.1621 208.909 90.8181 206.765 90.8181ZM219.117 85.7941H223.373V102.37H219.117V85.7941ZM241.418 86.2101C248.17 86.2101 252.138 88.0021 252.138 91.2661C252.138 94.5301 248.17 96.3221 241.418 96.3221C234.634 96.3221 230.698 94.5301 230.698 91.2661C230.698 88.0021 234.634 86.2101 241.418 86.2101ZM241.418 89.3141C237.13 89.3141 235.114 89.9541 235.114 91.2661C235.114 92.6421 237.13 93.2181 241.418 93.2181C245.706 93.2181 247.722 92.6421 247.722 91.2661C247.722 89.9541 245.706 89.3141 241.418 89.3141ZM228.01 97.6981H254.794V101.058H228.01V97.6981ZM231.082 102.722H251.562V110.338H235.306V112.962H231.114V107.394H247.37V105.89H231.082V102.722ZM231.114 112.034H252.33V115.234H231.114V112.034ZM276.744 85.7941H281V115.426H276.744V85.7941ZM279.688 97.3781H284.84V100.898H279.688V97.3781ZM262.216 88.8021H266.184C266.184 97.0261 265.416 103.33 260.168 109.218L256.84 106.818C261.416 101.762 262.216 96.8341 262.216 89.3141V88.8021ZM258.152 88.8021H263.88V92.2581H258.152V88.8021ZM270.376 88.8021H274.344C274.344 97.4101 273.64 104.674 268.488 111.106L265.16 108.738C269.64 103.074 270.376 97.3781 270.376 89.2821V88.8021ZM267.176 88.8021H272.136V92.2581H267.176V88.8021ZM292.805 100.834H297.029V109.154H292.805V100.834ZM303.557 100.834H307.813V109.154H303.557V100.834ZM286.917 108.546H313.733V112.002H286.917V108.546ZM300.293 87.2341C306.661 87.2341 311.365 90.3701 311.365 95.2021C311.365 100.034 306.661 103.138 300.293 103.138C293.893 103.138 289.221 100.034 289.221 95.2021C289.221 90.3701 293.893 87.2341 300.293 87.2341ZM300.293 90.5621C296.165 90.5621 293.413 92.2581 293.413 95.2021C293.413 98.1141 296.165 99.8421 300.293 99.8421C304.421 99.8421 307.173 98.1141 307.173 95.2021C307.173 92.2581 304.421 90.5621 300.293 90.5621ZM323.668 105.578H319.793C319.793 104.641 319.85 103.828 319.965 103.141C320.09 102.443 320.298 101.818 320.59 101.266C320.881 100.714 321.277 100.172 321.777 99.6406C322.142 99.2135 322.47 98.8073 322.762 98.4219C323.064 98.026 323.303 97.625 323.48 97.2187C323.657 96.8021 323.746 96.3385 323.746 95.8281C323.746 95.2448 323.678 94.7604 323.543 94.375C323.418 93.9896 323.23 93.6979 322.98 93.5C322.73 93.3021 322.413 93.2031 322.027 93.2031C321.756 93.2031 321.486 93.2969 321.215 93.4844C320.944 93.6719 320.715 93.9583 320.527 94.3437C320.34 94.7292 320.246 95.2344 320.246 95.8594H315.84C315.861 94.4115 316.142 93.2187 316.683 92.2812C317.225 91.3437 317.959 90.651 318.887 90.2031C319.824 89.7448 320.871 89.5156 322.027 89.5156C323.308 89.5156 324.402 89.7552 325.308 90.2344C326.225 90.7031 326.928 91.3958 327.418 92.3125C327.907 93.2187 328.152 94.3281 328.152 95.6406C328.152 96.5469 327.996 97.349 327.683 98.0469C327.371 98.7448 326.965 99.3958 326.465 100C325.965 100.594 325.433 101.214 324.871 101.859C324.402 102.391 324.09 102.943 323.933 103.516C323.777 104.089 323.689 104.776 323.668 105.578ZM319.402 110.375C319.402 109.687 319.621 109.115 320.058 108.656C320.496 108.198 321.079 107.969 321.808 107.969C322.538 107.969 323.116 108.198 323.543 108.656C323.97 109.115 324.183 109.687 324.183 110.375C324.183 111.042 323.97 111.609 323.543 112.078C323.116 112.536 322.538 112.766 321.808 112.766C321.079 112.766 320.496 112.536 320.058 112.078C319.621 111.609 319.402 111.042 319.402 110.375Z" fill="black"/>
<path d="M369.5 73C389.106 73 405 57.1059 405 37.5C405 17.8939 389.106 2 369.5 2C349.894 2 334 17.8939 334 37.5C334 43.966 335.729 50.0283 338.749 55.25L335.775 71.225L351.75 68.2508C356.972 71.2712 363.034 73 369.5 73Z" fill="#FCF390" stroke="black" stroke-width="4" stroke-linecap="round" stroke-linejoin="round"/>
<path d="M358.852 26.85C358.852 14.4249 378.377 14.425 378.377 26.85C378.377 35.725 369.502 33.9497 369.502 44.5997" stroke="black" stroke-width="6.94216" stroke-linecap="round" stroke-linejoin="round"/>
<path d="M369.5 58.8363L369.536 58.7969" stroke="black" stroke-width="6.94216" stroke-linecap="round" stroke-linejoin="round"/>
</svg>
