<svg width="33" height="30" viewBox="0 0 33 30" fill="none" xmlns="http://www.w3.org/2000/svg">
<path d="M16.4973 29.6965H16.4131C16.1673 29.6781 15.9335 29.5829 15.745 29.4243C15.6932 29.3804 15.6458 29.3318 15.6031 29.2791L0.27631 11.0092C0.156798 10.8726 0.0724108 10.7089 0.0304892 10.5324C0.0304892 10.5109 0.0205903 10.4895 0.0156408 10.468C-0.0310982 10.1917 0.0277837 9.9078 0.180622 9.67282L0.211968 9.62663L6.20077 1.15487C6.22222 1.12187 6.24366 1.09217 6.26841 1.06578C6.44359 0.857603 6.68665 0.717963 6.95473 0.671472C7.00061 0.664477 7.04691 0.660616 7.09331 0.659923L16.4148 0H16.4973H16.5781L25.9012 0.659923C25.9526 0.662843 26.004 0.669459 26.0546 0.679721C26.3488 0.734478 26.6101 0.901273 26.7838 1.14497L32.7842 9.63158C32.7965 9.64802 32.8081 9.66508 32.8188 9.68272C32.9561 9.89305 33.0183 10.1436 32.9953 10.3938C32.9882 10.4579 32.9762 10.5214 32.959 10.5835C32.9138 10.7417 32.8338 10.8877 32.7248 11.0108L17.3931 29.2775C17.3675 29.3095 17.34 29.3398 17.3106 29.3682C17.2143 29.4618 17.1026 29.5383 16.9807 29.5942C16.8805 29.6395 16.7743 29.67 16.6655 29.685C16.6098 29.6927 16.5535 29.6965 16.4973 29.6965ZM9.8089 11.4018L16.4973 25.8409L23.1856 11.4018H9.8089ZM25.7131 11.4018L21.1563 21.2396L29.4054 11.4018H25.7131ZM3.58417 11.4018L11.8332 21.2396L7.28139 11.4018H3.58417ZM26.6733 4.93952L26.2443 9.14818H29.6462L26.6733 4.93952ZM16.4973 3.08349L11.3366 9.14818H21.6579L16.4973 3.08349ZM6.32121 4.93952L3.34825 9.14818H6.75015L6.32121 4.93952ZM18.934 2.42687L24.0055 8.38762L24.5813 2.82282L18.934 2.42687ZM14.0572 2.42687L8.41316 2.82282L8.98234 8.38762L14.0572 2.42687Z" fill="black"/>
</svg>
