<svg width="157" height="32" viewBox="0 0 157 32" fill="none" xmlns="http://www.w3.org/2000/svg">
<path fill-rule="evenodd" clip-rule="evenodd" d="M21.2971 1.85367C22.4172 0.616946 24.3824 0 27.3459 0C30.2407 0 32.3864 0.558808 33.5653 2.04591C34.7227 3.50583 34.3907 5.20512 34.2775 5.78453L34.2643 5.85307C34.0585 6.93719 33.8748 7.90004 33.708 8.77471C32.8684 13.1762 32.4547 15.3447 31.7981 19.4958C31.5948 20.7814 31.2053 22.3252 30.4985 23.8679C32.2845 25.7636 34.8742 27.1888 38.5079 27.1888C41.909 27.1888 43.9532 25.9241 45.2569 24.3693C45.4438 24.1463 45.6178 23.9145 45.7795 23.6759C44.9798 22.322 44.4196 20.9601 44.0592 19.7574C43.5151 17.9417 42.5719 14.0711 41.7786 10.7208C41.3785 9.03128 41.0114 7.45185 40.7444 6.29503C40.6108 5.71651 40.5022 5.24342 40.427 4.9148L40.4114 4.84655C40.2506 4.887 40.2504 4.8861 40.2501 4.8852L40.2491 4.88099L40.2469 4.87233L40.2425 4.85409C40.2395 4.84153 40.2364 4.82813 40.2333 4.81394C40.2271 4.78556 40.2207 4.75387 40.2144 4.71905C40.202 4.64957 40.1899 4.56671 40.1813 4.47218C40.1641 4.28416 40.1595 4.04253 40.1952 3.76446C40.2688 3.19024 40.5108 2.49864 41.0834 1.86054C42.1977 0.618825 44.1542 0 47.0961 0C49.9697 0 52.106 0.560683 53.2781 2.05301C54.4221 3.50967 54.0945 5.20198 53.9824 5.78088L53.9692 5.84973C53.7675 6.92275 53.5872 7.87698 53.4232 8.74451L53.4223 8.7493L53.419 8.76658L53.4182 8.7711C52.5863 13.1727 52.1764 15.3415 51.5259 19.493C51.3454 20.6447 51.0167 22.0044 50.4458 23.3851C52.2556 25.5149 54.9958 27.1888 58.9779 27.1888C62.4231 27.1888 64.4931 25.9186 65.8102 24.3622C66.0065 24.1303 66.1886 23.8888 66.3574 23.6402C65.5689 22.2981 65.0153 20.9495 64.6581 19.7574C64.1154 17.9464 63.173 14.1381 62.3793 10.8434C61.9793 9.18284 61.6122 7.63236 61.3452 6.49722C61.2116 5.92954 61.103 5.4655 61.0278 5.14322L60.9572 4.84026C60.7562 4.89148 60.7559 4.8905 60.7556 4.88952L60.7546 4.88528L60.7524 4.87656L60.7479 4.85819C60.7448 4.84553 60.7417 4.83205 60.7385 4.81775C60.7322 4.78919 60.7257 4.75729 60.7194 4.72225C60.7067 4.65233 60.6945 4.56896 60.6857 4.47387C60.6682 4.28472 60.6636 4.0417 60.6998 3.76212C60.7746 3.18413 61.0202 2.49112 61.5976 1.85367C62.7178 0.616946 64.683 0 67.6464 0C70.5413 0 72.687 0.558808 73.8659 2.04591C75.0232 3.50582 74.6913 5.20509 74.5781 5.78451L74.5648 5.85307C74.3605 6.9297 74.1779 7.88674 74.012 8.75658L74.0104 8.76497L74.0086 8.77448L74.0085 8.77481L74.0083 8.77575C73.1689 13.1765 72.7552 15.345 72.0987 19.4958C71.9177 20.6396 71.5895 21.9878 71.0215 23.3577C72.8311 25.5006 75.5777 27.1888 79.5768 27.1888C83.022 27.1888 85.092 25.9186 86.4091 24.3623C86.4718 24.2882 86.5331 24.2131 86.5929 24.1371C85.647 22.6307 85.0027 21.0914 84.6053 19.7525C84.0524 17.8903 83.2669 14.0302 82.6358 10.7462C82.3157 9.08036 82.0283 7.52527 81.821 6.38701C81.7174 5.81769 81.6336 5.35221 81.5758 5.02877L81.5428 4.84365C81.355 4.89144 81.3548 4.89048 81.3545 4.88952L81.3535 4.88528L81.3513 4.87656L81.3468 4.85819C81.3437 4.84553 81.3406 4.83205 81.3374 4.81775C81.3311 4.78919 81.3246 4.75729 81.3183 4.72225C81.3056 4.65233 81.2934 4.56896 81.2846 4.47387C81.2671 4.28472 81.2625 4.0417 81.2987 3.76212C81.3735 3.18413 81.6191 2.49112 82.1965 1.85367C83.3167 0.616946 85.2819 0 88.2453 0C91.1402 0 93.2859 0.558808 94.4648 2.04591C95.6221 3.50583 95.2902 5.20512 95.177 5.78452L95.1637 5.85307C94.958 6.93711 94.7743 7.89991 94.6075 8.77453C93.7678 13.1761 93.3542 15.3446 92.6976 19.4958C92.4941 20.7819 92.1045 22.3263 91.3972 23.8696C93.1831 25.7644 95.7724 27.1888 99.405 27.1888C102.806 27.1888 104.85 25.9241 106.154 24.3693C106.341 24.1463 106.515 23.9145 106.677 23.6759C105.877 22.322 105.317 20.9601 104.956 19.7574C104.412 17.9417 103.469 14.0711 102.676 10.7208C102.276 9.03128 101.908 7.45185 101.641 6.29503C101.508 5.71651 101.399 5.24342 101.324 4.9148L101.308 4.84655C101.148 4.887 101.147 4.8861 101.147 4.8852L101.146 4.88099L101.144 4.87233L101.14 4.85409C101.137 4.84153 101.133 4.82813 101.13 4.81394C101.124 4.78556 101.118 4.75387 101.112 4.71905C101.099 4.64957 101.087 4.56671 101.078 4.47218C101.061 4.28416 101.057 4.04253 101.092 3.76446C101.166 3.19024 101.408 2.49864 101.98 1.86054C103.095 0.618825 105.051 0 107.993 0C110.867 0 113.003 0.560683 114.175 2.05301C115.319 3.50967 114.992 5.20198 114.88 5.78088L114.866 5.84973C114.663 6.93186 114.481 7.89317 114.316 8.76658L114.315 8.7711L114.315 8.77132C113.483 13.1728 113.073 15.3416 112.423 19.493C112.242 20.6447 111.914 22.0044 111.343 23.3851C113.153 25.5149 115.893 27.1888 119.875 27.1888C123.32 27.1888 125.39 25.9186 126.707 24.3622C126.904 24.1303 127.086 23.8888 127.254 23.6402C126.466 22.2981 125.912 20.9495 125.555 19.7574C125.012 17.9464 124.07 14.1381 123.276 10.8434C122.876 9.18284 122.509 7.63236 122.242 6.49722C122.109 5.92954 122 5.4655 121.925 5.14322L121.854 4.84026C121.653 4.89148 121.653 4.8905 121.653 4.88952L121.652 4.88528L121.649 4.87656L121.645 4.85819C121.642 4.84553 121.639 4.83205 121.636 4.81775C121.629 4.78919 121.623 4.75729 121.616 4.72225C121.604 4.65233 121.592 4.56896 121.583 4.47387C121.565 4.28472 121.561 4.0417 121.597 3.76212C121.672 3.18413 121.917 2.49112 122.495 1.85367C123.615 0.616946 125.58 0 128.543 0C131.438 0 133.584 0.558808 134.763 2.04591C135.92 3.50582 135.588 5.20509 135.475 5.78451L135.462 5.85307C135.258 6.92567 135.076 7.87957 134.911 8.74681L134.906 8.77448L134.906 8.77518L134.905 8.77687C134.066 13.1769 133.652 15.3454 132.996 19.4958C132.815 20.6396 132.487 21.9878 131.919 23.3577C133.728 25.5006 136.475 27.1888 140.474 27.1888C143.816 27.1888 145.864 25.9935 147.186 24.5012L142.252 4.88952L142.251 4.88528L142.249 4.8806L142.248 4.87656L142.244 4.85819C142.241 4.84553 142.238 4.83205 142.234 4.81775C142.228 4.78919 142.222 4.75728 142.215 4.72225C142.203 4.65233 142.19 4.56896 142.182 4.47387C142.164 4.28472 142.16 4.0417 142.196 3.76212C142.271 3.18412 142.516 2.49112 143.094 1.85367C144.214 0.616946 146.179 0 149.142 0C152.037 0 154.183 0.558808 155.362 2.04591C156.519 3.50583 156.187 5.20512 156.074 5.78453L156.061 5.85307C155.857 6.92664 155.675 7.8813 155.509 8.74916L155.505 8.77469L155.504 8.77488C154.665 13.1762 154.251 15.3447 153.595 19.4958C153.252 21.6599 152.383 24.5556 150.359 26.9463C148.271 29.4139 145.078 31.1888 140.474 31.1888C135.651 31.1888 132.186 29.3423 129.777 26.9274C129.771 26.9337 129.766 26.94 129.761 26.9463C127.672 29.4139 124.479 31.1888 119.875 31.1888C115.071 31.1888 111.614 29.3565 109.206 26.9553C107.135 29.416 103.969 31.1888 99.405 31.1888C94.8603 31.1888 91.5321 29.5228 89.1625 27.2875C87.0726 29.5759 83.9659 31.1888 79.5768 31.1888C74.7541 31.1888 71.2889 29.3423 68.8795 26.9274L68.8635 26.9463C66.7751 29.4139 63.5821 31.1888 58.9779 31.1888C54.1738 31.1888 50.7168 29.3565 48.3085 26.9553C46.238 29.416 43.0718 31.1888 38.5079 31.1888C33.9624 31.1888 30.6338 29.5223 28.2641 27.2863C26.1743 29.5753 23.0672 31.1888 18.6774 31.1888C9.37925 31.1888 5.12733 24.3251 3.75861 19.7574C3.20722 17.9173 2.26052 13.6947 1.46924 10.0295C1.06905 8.17576 0.701853 6.43233 0.434762 5.15266C0.301187 4.51269 0.192583 3.98838 0.117332 3.62386L0.0305024 3.20237L0.00780314 3.0918L0.00197571 3.06337L0.000485359 3.0561L0.000101386 3.05422L1.77305e-07 3.05373C-2.47374e-05 3.0536 -3.96386e-05 3.05353 1.95935 2.65253C3.91874 2.25153 3.91874 2.25156 3.91876 2.25163L3.91884 2.25203L3.91918 2.25372L3.9206 2.26061L3.92626 2.28827L3.94863 2.3972L4.03473 2.81515C4.10947 3.17719 4.21748 3.69863 4.35038 4.3354C4.61625 5.60921 4.98148 7.34323 5.37917 9.18538C6.18365 12.9118 7.09449 16.9547 7.59028 18.6092C8.6983 22.3069 11.8768 27.1888 18.6774 27.1888C22.1226 27.1888 24.1926 25.9186 25.5097 24.3623C25.5728 24.2876 25.6345 24.212 25.6948 24.1355C24.7494 22.6296 24.1055 21.0909 23.7082 19.7525C23.1553 17.8903 22.3699 14.0302 21.7387 10.7462C21.4186 9.08036 21.1312 7.52527 20.924 6.38701C20.8203 5.81769 20.7366 5.35221 20.6787 5.02877L20.6456 4.84307C20.4556 4.89144 20.4554 4.89048 20.4551 4.88952L20.454 4.88528L20.4518 4.87656L20.4473 4.85819C20.4443 4.84553 20.4412 4.83205 20.438 4.81775C20.4317 4.78919 20.4252 4.75728 20.4188 4.72225C20.4062 4.65233 20.3939 4.56896 20.3852 4.47387C20.3677 4.28472 20.3631 4.0417 20.3993 3.76212C20.474 3.18413 20.7197 2.49112 21.2971 1.85367ZM129.194 17.9391C129.779 14.3015 130.201 12.0879 130.978 8.0156L130.978 8.01436L130.981 7.99909L130.986 7.97752C131.15 7.11455 131.331 6.16812 131.532 5.10727C131.603 4.73423 131.607 4.57113 131.605 4.51272C131.476 4.41403 130.808 4 128.543 4C127.063 4 126.258 4.18651 125.845 4.3405C125.918 4.65331 126.017 5.07598 126.136 5.58128C126.402 6.71179 126.767 8.25498 127.165 9.90657C127.873 12.8462 128.67 16.0665 129.194 17.9391ZM110.387 8.01769C109.613 12.1098 109.195 14.3249 108.61 17.993C108.088 16.1224 107.283 12.8203 106.568 9.79913C106.17 8.11903 105.805 6.54728 105.539 5.39533C105.446 4.99092 105.365 4.63838 105.299 4.3512C105.693 4.19647 106.489 4 107.993 4C110.227 4 110.882 4.41069 111.008 4.50711C111.01 4.56413 111.007 4.72809 110.935 5.1106C110.733 6.18657 110.552 7.14483 110.387 8.01769ZM88.6688 19.3163C88.6977 19.1656 88.7236 19.017 88.7467 18.8709C89.4136 14.6544 89.8391 12.4241 90.68 8.01581L90.6803 8.01439L90.6803 8.01431L90.6837 7.99667L90.6883 7.97267C90.8526 7.111 91.0329 6.16613 91.2338 5.10727C91.3046 4.73423 91.3088 4.57113 91.3069 4.51272C91.1777 4.41402 90.5097 4 88.2453 4C86.7297 4 85.9219 4.19547 85.5181 4.35142C85.5751 4.67 85.6563 5.12134 85.7563 5.6704C85.962 6.80013 86.2469 8.34184 86.5639 9.99126C87.207 13.3377 87.9552 16.9817 88.4398 18.6141C88.5081 18.8442 88.5843 19.0787 88.6688 19.3163ZM70.0814 8.0145C69.3044 12.0874 68.8821 14.3012 68.2964 17.9391C67.7724 16.0665 66.9762 12.8462 66.268 9.90657C65.8702 8.25498 65.5048 6.71179 65.2389 5.58128C65.12 5.07598 65.021 4.65331 64.948 4.3405C65.3608 4.18651 66.166 4 67.6464 4C69.9108 4 70.5788 4.41403 70.708 4.51272C70.7099 4.57113 70.7057 4.73423 70.6349 5.10727C70.4307 6.18323 70.2479 7.14149 70.0814 8.01436L70.0814 8.0145ZM47.7132 17.993C48.2976 14.3249 48.7163 12.1098 49.4897 8.01777L49.4897 8.01769C49.6547 7.14483 49.8358 6.18657 50.0381 5.1106C50.11 4.72809 50.1129 4.56413 50.1106 4.50711C49.9853 4.41069 49.3294 4 47.0961 4C45.5918 4 44.7957 4.19646 44.4016 4.3512C44.4674 4.63838 44.5485 4.99092 44.6419 5.39533C44.9078 6.54728 45.2731 8.11903 45.6709 9.79913C46.3863 12.8203 47.1906 16.1224 47.7132 17.993ZM27.8472 18.8709C27.8243 19.0156 27.7987 19.1628 27.7702 19.3119C27.6863 19.0759 27.6107 18.8428 27.5428 18.6141C27.0581 16.9817 26.31 13.3377 25.6669 9.99126C25.3499 8.34184 25.065 6.80013 24.8592 5.6704C24.7592 5.12084 24.6779 4.66919 24.6209 4.35056C25.0254 4.19476 25.833 4 27.3459 4C29.6103 4 30.2783 4.41403 30.4075 4.51272C30.4093 4.57113 30.4052 4.73423 30.3344 5.10727C30.1302 6.18324 29.9474 7.14151 29.7809 8.01438C28.9397 12.4236 28.5142 14.6539 27.8472 18.8709ZM151.577 8.01555C150.778 12.2068 150.354 14.4293 149.741 18.2616L146.258 4.41903C146.589 4.25948 147.396 4 149.142 4C151.407 4 152.075 4.41402 152.204 4.51272C152.206 4.57113 152.202 4.73423 152.131 5.10727C151.927 6.18324 151.744 7.14151 151.577 8.01438L151.577 8.01555Z" fill="#BACDE6"/>
</svg>
