<svg width="32" height="30" viewBox="0 0 32 30" fill="none" xmlns="http://www.w3.org/2000/svg">
<path d="M14.0382 27.3444L14.0374 27.3438C9.95029 23.6376 6.59828 20.5975 4.26203 17.7413C1.93152 14.892 0.664062 12.2866 0.664062 9.45833C0.664062 4.85781 4.27187 1.25 8.8724 1.25C11.476 1.25 13.9827 2.46447 15.6167 4.38334L15.9974 4.83037L16.3781 4.38334C18.0121 2.46447 20.5188 1.25 23.1224 1.25C27.7229 1.25 31.3307 4.85781 31.3307 9.45833C31.3307 12.2866 30.0633 14.892 27.7327 17.7434C25.4032 20.5933 22.064 23.6278 17.9931 27.3271L17.958 27.359L17.957 27.36L15.9987 29.1292L14.0382 27.3444Z" fill="white" stroke="black"/>
</svg>
